<svg width="190" height="190" viewBox="0 0 190 190" fill="none" xmlns="http://www.w3.org/2000/svg">
<path d="M169.643 95H122.143V108.571H154.714C149.964 128.929 135.036 145.893 115.357 152.679L37.3215 74.6429C45.4643 50.8929 68.5358 33.9286 95 33.9286C115.357 33.9286 133.679 44.1072 145.214 59.7143L155.393 50.8929C141.821 32.5715 120.107 20.3572 95 20.3572C59.7143 20.3572 29.8572 45.4643 22.3929 78.7143L111.964 168.286C144.536 160.143 169.643 130.286 169.643 95ZM20.3572 95.6786C20.3572 114.679 27.8215 133 42.0715 147.25C56.3215 161.5 75.3215 168.964 93.6429 168.964L20.3572 95.6786Z" fill="white"/>
<path d="M95 0C42.75 0 0 42.75 0 95C0 147.25 42.75 190 95 190C147.25 190 190 147.25 190 95C190 42.75 147.25 0 95 0ZM42.0714 147.929C27.8214 133.679 20.3571 114.679 20.3571 96.3571L94.3214 169.643C75.3214 168.964 56.3214 162.179 42.0714 147.929ZM111.286 167.607L22.3929 78.7143C29.8571 45.4643 59.7143 20.3571 95 20.3571C120.107 20.3571 141.821 32.5714 155.393 50.8929L145.214 59.7143C133.679 44.1071 115.357 33.9286 95 33.9286C68.5357 33.9286 46.1429 50.8929 37.3214 74.6429L115.357 152.679C135.036 145.893 149.964 128.929 154.714 108.571H122.143V95H169.643C169.643 130.286 144.536 160.143 111.286 167.607Z" fill="#663399"/>
</svg>
