<svg width="511" height="512" viewBox="0 0 511 512" fill="none" xmlns="http://www.w3.org/2000/svg">
<g clip-path="url(#clip0)">
<path d="M433.035 70.8281H78.0742L137.047 485.18C138.543 495.687 147.539 503.496 158.148 503.496H352.961C363.574 503.496 372.57 495.687 374.066 485.18L433.035 70.8281Z" fill="#F9F6F1"/>
<path d="M374.734 70.8281L313.156 503.496H352.961C363.574 503.496 372.57 495.687 374.062 485.18L433.035 70.8281H374.734Z" fill="#F2EDE7"/>
<path d="M396.246 6.50391H114.863C110.855 6.50391 107.402 9.32031 106.594 13.2422L93.6719 75.8867H417.438L404.516 13.2422C403.707 9.32031 400.254 6.50391 396.246 6.50391V6.50391Z" fill="#464C50"/>
<path d="M408.062 30.4219L404.52 13.2422C403.707 9.32031 400.254 6.50391 396.25 6.50391H345.828L348.578 19.8359C350.824 30.7305 342.504 35.9375 331.379 35.9375H101.91L93.6719 75.8867H417.441L408.062 30.4219Z" fill="#31363B"/>
<path d="M443.676 110.574H67.4336C60.5703 110.574 55.0039 105.008 55.0039 98.1445V65.1875C55.0039 58.3242 60.5703 52.7578 67.4336 52.7578H443.676C450.539 52.7578 456.105 58.3242 456.105 65.1875V98.1445C456.105 105.012 450.539 110.574 443.676 110.574Z" fill="#464C50"/>
<path d="M443.676 52.7578H398.387V63.1094C398.387 82.7812 388.664 93.7227 368.992 93.7227H73.6602C66.7969 93.7227 61.2305 88.1602 61.2305 81.293L55.0078 98.1445C55.0078 105.008 60.5703 110.574 67.4375 110.574H443.676C450.539 110.574 456.105 105.008 456.105 98.1445V65.1875C456.105 58.3242 450.539 52.7578 443.676 52.7578V52.7578Z" fill="#31363B"/>
<path d="M118.566 433.625L81.5625 173.637C80.707 167.598 85.3906 162.203 91.4883 162.203H419.625C425.723 162.203 430.406 167.602 429.547 173.637L392.543 433.625C391.84 438.562 387.609 442.234 382.621 442.234H128.488C123.5 442.234 119.27 438.562 118.566 433.625Z" fill="#F8D800"/>
<path d="M419.625 162.203H373.121L333.266 442.234H382.621C387.609 442.234 391.84 438.562 392.543 433.625L429.547 173.637C430.406 167.602 425.723 162.203 419.625 162.203V162.203Z" fill="#E4C90F"/>
<path d="M306.746 245.766C284.727 223.746 243.957 228.816 215.684 257.086C187.41 285.359 182.34 326.133 204.359 348.148C226.379 370.168 267.148 365.098 295.422 336.828C323.695 308.555 328.766 267.781 306.746 245.766Z" fill="#68061E"/>
<path d="M443.676 45.2539H418.785L411.871 11.7266C410.348 4.35156 403.777 -1 396.25 -1H114.863C107.332 -1 100.762 4.35156 99.2422 11.7266L92.3242 45.2539H67.4336C56.4414 45.2539 47.5 54.1953 47.5 65.1875V98.1445C47.5 109.137 56.4414 118.082 67.4336 118.082H77.2148L82.7578 157.031C81.0781 158 79.5469 159.238 78.2461 160.734C74.918 164.574 73.418 169.66 74.1328 174.695L111.137 434.684C112.156 441.855 117.543 447.543 124.348 449.223L129.613 486.238C131.625 500.355 143.891 511 158.148 511H352.965C367.223 511 379.488 500.355 381.5 486.238L386.766 449.223C393.57 447.543 398.957 441.855 399.977 434.684L436.98 174.695C437.695 169.66 436.195 164.574 432.867 160.734C431.566 159.238 430.035 158 428.352 157.031L433.898 118.082H443.68C454.672 118.082 463.613 109.137 463.613 98.1445V65.1875C463.609 54.1953 454.668 45.2539 443.676 45.2539ZM422.113 172.578L385.109 432.566C384.934 433.801 383.863 434.727 382.621 434.727H310.773C306.629 434.727 303.27 438.086 303.27 442.234C303.27 446.383 306.629 449.742 310.773 449.742H371.527L366.633 484.125C365.668 490.887 359.793 495.988 352.961 495.988H158.148C151.316 495.988 145.441 490.887 144.477 484.125L139.586 449.742H275.84C279.988 449.742 283.348 446.383 283.348 442.234C283.348 438.086 279.988 434.727 275.84 434.727H128.488C127.246 434.727 126.176 433.801 126 432.566L88.9961 172.578C88.8555 171.59 89.3047 170.898 89.5859 170.574C89.8555 170.266 90.4414 169.773 91.3555 169.727C91.457 169.723 91.5547 169.715 91.6602 169.707H419.449C419.551 169.715 419.652 169.723 419.754 169.727C420.668 169.773 421.254 170.266 421.523 170.574C421.805 170.898 422.254 171.59 422.113 172.578V172.578ZM92.3828 118.082H418.73L413.52 154.695H97.5938L92.3828 118.082ZM448.598 98.1445C448.598 100.859 446.391 103.066 443.676 103.066H67.4336C64.7227 103.066 62.5117 100.859 62.5117 98.1445V65.1875C62.5117 62.4727 64.7227 60.2656 67.4336 60.2656H134.609C138.754 60.2656 142.113 56.9063 142.113 52.7578C142.113 48.6133 138.754 45.2539 134.609 45.2539H107.656L113.945 14.7617C114.035 14.3281 114.422 14.0117 114.863 14.0117H396.25C396.691 14.0117 397.078 14.3281 397.168 14.7617L403.457 45.2539H169.543C165.395 45.2539 162.035 48.6133 162.035 52.7578C162.035 56.9063 165.395 60.2656 169.543 60.2656H443.676C446.391 60.2656 448.598 62.4727 448.598 65.1875V98.1445Z" fill="black"/>
<path d="M312.023 240.422C311.973 240.371 311.918 240.324 311.863 240.273C286.91 215.578 241.453 220.703 210.379 251.781C195.527 266.629 186.059 285.187 183.715 304.039C181.281 323.586 186.73 341.137 199.055 353.461C199.055 353.465 199.059 353.465 199.062 353.469C199.082 353.488 199.102 353.508 199.121 353.523C209.52 363.887 223.617 369.367 239.496 369.367C242.43 369.367 245.43 369.176 248.473 368.801C267.324 366.457 285.883 356.984 300.734 342.137C331.887 310.98 336.969 265.367 312.059 240.457C312.047 240.441 312.035 240.434 312.023 240.422V240.422ZM198.613 305.891C200.547 290.34 208.496 274.895 220.992 262.395C235.965 247.422 254.711 239.531 271.473 239.531C279.176 239.531 286.453 241.207 292.758 244.621C280.152 252.109 260.578 266.84 254.625 288.672C249.445 307.652 221.344 328.68 205.922 338.43C199.641 329.801 197.047 318.473 198.613 305.891ZM290.117 331.52C277.617 344.02 262.172 351.965 246.621 353.898C235.637 355.266 225.605 353.465 217.492 348.809C232.973 338.59 262.625 316.395 269.109 292.621C274.402 273.203 295.324 260.129 304.879 255.047C319.738 274.828 313.754 307.879 290.117 331.52V331.52Z" fill="black"/>
</g>
<defs>
<clipPath id="clip0">
<rect width="511" height="511.999" fill="white"/>
</clipPath>
</defs>
</svg>
