<svg width="1059" height="496" viewBox="0 0 1059 496" fill="none" xmlns="http://www.w3.org/2000/svg">
<path d="M708.711 133.217C716.446 128.751 725.976 128.751 733.711 133.217L780.923 160.474C788.658 164.94 793.423 173.193 793.423 182.125V236.64C793.423 245.571 788.658 253.825 780.923 258.29L733.711 285.548C725.976 290.014 716.446 290.014 708.711 285.548L661.5 258.29C653.765 253.825 649 245.571 649 236.64V182.125C649 173.193 653.765 164.94 661.5 160.474L708.711 133.217Z" fill="#2DCE89" fill-opacity="0.3"/>
<path d="M321.711 7.21688C329.446 2.75106 338.976 2.75106 346.711 7.21688L393.923 34.4743C401.658 38.9401 406.423 47.1933 406.423 56.125V110.64C406.423 119.571 401.658 127.825 393.923 132.29L346.711 159.548C338.976 164.014 329.446 164.014 321.711 159.548L274.5 132.29C266.765 127.825 262 119.571 262 110.64V56.125C262 47.1933 266.765 38.9401 274.5 34.4743L321.711 7.21688Z" fill="#5E72E4"/>
<g filter="url(#filter0_d)">
<rect x="375.13" y="118.603" width="323.949" height="222.09" rx="10" fill="#F4F5F7"/>
</g>
<path d="M374.598 128.604C374.598 123.081 379.075 118.604 384.598 118.604H476.365V340.695H384.598C379.075 340.695 374.598 336.217 374.598 330.695V128.604Z" fill="#2C2C52"/>
<rect x="375.13" y="219.2" width="101.234" height="21.3829" fill="#5E72E4"/>
<rect x="383.656" y="197.331" width="84.1842" height="9.23352" rx="4.61676" fill="#525F7F"/>
<rect x="383.656" y="169.63" width="70.3311" height="9.23352" rx="4.61676" fill="#525F7F"/>
<rect x="383.656" y="225.031" width="84.1842" height="9.7195" rx="4.85975" fill="#F4F5F7"/>
<path d="M409.763 142.659C409.763 140.109 411.83 138.042 414.38 138.042H456.829C459.379 138.042 461.446 140.109 461.446 142.659C461.446 145.209 459.379 147.276 456.829 147.276H414.38C411.83 147.276 409.763 145.209 409.763 142.659Z" fill="#525F7F"/>
<rect x="383.656" y="252.732" width="50.6171" height="9.23352" rx="4.61676" fill="#525F7F"/>
<rect x="495.013" y="187.125" width="34.0999" height="4.37377" rx="2.18689" fill="#5E72E4"/>
<rect x="593.583" y="187.125" width="43.6905" height="4.37377" rx="2.18689" fill="#5E72E4"/>
<rect x="383.656" y="280.433" width="70.3311" height="9.7195" rx="4.85975" fill="#525F7F"/>
<ellipse cx="391.914" cy="142.902" rx="8.25858" ry="7.7756" fill="#525F7F"/>
<rect x="495.013" y="135.126" width="84.717" height="46.1676" fill="white"/>
<rect x="593.583" y="135.126" width="84.717" height="46.1676" fill="white"/>
<g filter="url(#filter1_d)">
<path d="M503.005 176.92L514.133 166.754H535.735L549.809 152.736H559.301L571.738 142.416" stroke="#5E72E4" stroke-width="4"/>
</g>
<g filter="url(#filter2_d)">
<path d="M603.173 153.342C603.173 151.87 604.366 150.678 605.838 150.678C607.309 150.678 608.502 151.87 608.502 153.342V181.294H603.173V153.342Z" fill="#5E72E4"/>
</g>
<g filter="url(#filter3_d)">
<path d="M612.764 145.08C612.764 143.609 613.957 142.416 615.428 142.416C616.9 142.416 618.092 143.609 618.092 145.08V181.294H612.764V145.08Z" fill="#5E72E4"/>
</g>
<g filter="url(#filter4_d)">
<path d="M623.421 175.43C623.421 174.106 624.494 173.032 625.818 173.032C627.142 173.032 628.216 174.106 628.216 175.43V181.294H623.421V175.43Z" fill="#5E72E4"/>
</g>
<g filter="url(#filter5_d)">
<path d="M633.544 158.421C633.544 157.096 634.617 156.023 635.942 156.023C637.266 156.023 638.339 157.096 638.339 158.421V181.294H633.544V158.421Z" fill="#5E72E4"/>
</g>
<g filter="url(#filter6_d)">
<path d="M643.667 162.089C643.667 160.618 644.86 159.425 646.331 159.425C647.803 159.425 648.995 160.618 648.995 162.089V181.294H643.667V162.089Z" fill="#5E72E4"/>
</g>
<g filter="url(#filter7_d)">
<path d="M653.791 145.08C653.791 143.609 654.984 142.416 656.455 142.416C657.926 142.416 659.119 143.609 659.119 145.08V181.294H653.791V145.08Z" fill="#5E72E4"/>
</g>
<g filter="url(#filter8_d)">
<path d="M663.914 148.481C663.914 147.01 665.107 145.817 666.578 145.817C668.05 145.817 669.243 147.01 669.243 148.481V181.294H663.914V148.481Z" fill="#5E72E4"/>
</g>
<rect x="496.079" y="222.116" width="186.484" height="101.569" fill="white"/>
<rect x="517.391" y="234.751" width="15.9843" height="4.85975" rx="2.42987" fill="#F4F5F7"/>
<rect x="659.119" y="234.751" width="15.9843" height="4.85975" rx="2.42987" fill="#5E72E4"/>
<rect x="517.391" y="234.751" width="26.1078" height="4.85975" rx="2.42987" fill="#F4F5F7"/>
<rect x="566.41" y="234.751" width="36.764" height="4.85975" rx="2.42987" fill="#F4F5F7"/>
<ellipse cx="508.067" cy="236.938" rx="5.06171" ry="4.61676" fill="#5E72E4"/>
<path d="M622.355 240.583L625.714 236.695H633.104L637.806 233.779" stroke="#5E72E4" stroke-width="2"/>
<rect x="517.391" y="278.003" width="15.9843" height="4.85975" rx="2.42987" fill="#F4F5F7"/>
<rect x="659.119" y="278.003" width="15.9843" height="4.85975" rx="2.42987" fill="#5E72E4"/>
<rect x="517.391" y="278.003" width="26.1078" height="4.85975" rx="2.42987" fill="#F4F5F7"/>
<rect x="566.41" y="278.003" width="36.764" height="4.85975" rx="2.42987" fill="#F4F5F7"/>
<ellipse cx="508.067" cy="280.19" rx="5.06171" ry="4.61676" fill="#5E72E4"/>
<path d="M622.355 283.834L625.714 279.947H633.104L637.806 277.031" stroke="#5E72E4" stroke-width="2"/>
<rect x="517.391" y="303.759" width="15.9843" height="3.8878" rx="1.9439" fill="#F4F5F7"/>
<rect x="659.119" y="303.759" width="15.9843" height="3.8878" rx="1.9439" fill="#5E72E4"/>
<rect x="517.391" y="303.759" width="26.1078" height="3.8878" rx="1.9439" fill="#F4F5F7"/>
<rect x="566.41" y="303.759" width="36.764" height="3.8878" rx="1.9439" fill="#F4F5F7"/>
<ellipse cx="508.067" cy="305.704" rx="5.06171" ry="4.37377" fill="#5E72E4"/>
<path d="M622.355 308.619L625.714 305.287H633.104L637.806 302.788" stroke="#5E72E4" stroke-width="2"/>
<rect x="496.079" y="250.302" width="186.484" height="17.9811" fill="#5E72E4"/>
<rect x="517.924" y="256.62" width="15.9843" height="4.37377" rx="2.18689" fill="#F4F5F7"/>
<rect x="659.119" y="256.62" width="15.9843" height="4.37377" rx="2.18689" fill="#F4F5F7"/>
<rect x="517.924" y="256.62" width="26.1078" height="4.37377" rx="2.18689" fill="#F4F5F7"/>
<rect x="566.942" y="256.62" width="36.764" height="4.37377" rx="2.18689" fill="#F4F5F7"/>
<ellipse cx="508.067" cy="258.563" rx="5.06171" ry="4.85975" fill="#525F7F"/>
<path d="M622.355 261.966L625.829 258.356H633.474L638.339 255.648" stroke="#525F7F" stroke-width="2"/>
<rect x="495.013" y="207.05" width="84.717" height="9.23352" rx="4.61676" fill="white"/>
<path fill-rule="evenodd" clip-rule="evenodd" d="M384.423 282.246C388.337 284.607 392.183 285.748 393.989 285.282C398.516 284.115 398.932 267.542 395.429 261.008C391.926 254.474 373.919 251.627 373.011 264.572C372.696 269.065 374.582 273.074 377.367 276.346L372.373 299.641H386.88L384.423 282.246Z" fill="#B28B67"/>
<path fill-rule="evenodd" clip-rule="evenodd" d="M389.699 253.892C387.717 253.287 384.839 253.082 383.628 253.22C384.317 251.569 384.59 249.73 384.367 247.939C384.151 246.199 383.374 244.717 382.655 243.164C382.324 242.448 381.948 241.737 381.389 241.189C380.818 240.631 380.097 240.263 379.34 240.088C378.565 239.908 377.755 239.923 376.98 240.086C376.636 240.158 376.329 240.315 375.992 240.402C375.647 240.492 375.48 240.276 375.23 240.059C374.627 239.536 373.743 239.278 372.981 239.186C372.125 239.082 371.237 239.211 370.421 239.493C369.627 239.767 368.863 240.212 368.289 240.86C368.033 241.149 367.801 241.477 367.65 241.84C367.589 241.989 367.578 242.077 367.43 242.131C367.293 242.182 367.132 242.183 366.99 242.231C365.621 242.696 364.45 243.755 363.812 245.114C363.44 245.908 363.264 247.304 363.312 248.87C363.361 250.435 364.773 254.52 366.094 256.01C367.273 257.339 369.007 258.217 370.679 258.601C369.569 259.871 368.83 261.458 368.283 263.072C367.69 264.825 367.322 266.647 367.187 268.503C367.058 270.267 367.046 272.132 367.459 273.857C367.846 275.471 368.672 276.795 370.052 277.635C370.684 278.02 371.364 278.309 372.048 278.573C372.722 278.834 373.398 279.087 374.104 279.233C375.44 279.509 376.98 279.462 378.009 278.398C378.38 278.014 378.788 277.532 379.059 277.063C379.156 276.894 379.215 276.784 379.097 276.619C378.955 276.422 378.726 276.271 378.544 276.116C377.506 275.236 376.864 274.061 376.702 272.665C376.538 271.248 376.918 269.419 378.295 268.801C379.994 268.037 381.865 268.914 383.376 269.73C384.018 267.463 385.335 265.422 387.402 264.382C389.688 263.232 392.311 263.097 394.66 262.11C395.272 261.853 395.896 261.561 396.347 261.037C396.535 260.818 396.756 260.534 396.831 260.244C396.93 259.863 396.685 259.544 396.495 259.248C395.491 257.675 391.681 254.497 389.699 253.892Z" fill="#191847"/>
<rect width="114.021" height="96.1806" rx="16" transform="matrix(-1 0 0 1 441.598 387.207)" fill="#CAD1D7"/>
<path fill-rule="evenodd" clip-rule="evenodd" d="M443.526 408.873C445.774 416.754 451.375 431.691 459.12 448.845L466.48 446.696C460.041 407.224 454.683 381.091 451.613 373.137C449.585 367.882 434.243 368.498 436.008 379.072C436.748 383.506 439.676 395.38 443.526 408.873ZM413.276 380.916C401.274 383.404 376.389 392.2 369.283 395.011C364.817 396.778 367.696 402.769 371.506 402.244C372.151 402.156 374.434 401.9 377.839 401.519C388.779 400.294 411.308 397.772 428.394 395.311C437.391 394.015 432.552 377.151 423.21 378.936C420.067 379.536 416.725 380.201 413.276 380.916Z" fill="#B28B67"/>
<path fill-rule="evenodd" clip-rule="evenodd" d="M452.084 368.683C450.857 364.676 395.078 350.452 395.078 350.452H390.507V354.715L428.944 374.295C428.892 374.927 428.924 375.595 429.048 376.299C428.77 390.815 434.978 401.659 441.125 412.395C445.144 419.416 449.137 426.391 451.273 434.316L465.395 432.208C464.983 431.155 464.333 426.408 463.444 419.918C461.201 403.554 457.44 376.105 452.163 368.843C452.145 368.818 452.126 368.793 452.107 368.768C452.1 368.739 452.092 368.711 452.084 368.683Z" fill="#1F28CF"/>
<path fill-rule="evenodd" clip-rule="evenodd" d="M393.7 385.924C390.184 385.219 386.945 384.591 384.174 384.104C366.273 380.962 361.053 371.374 364.139 350.452H397.121C402.508 352.001 430.507 363.751 445.034 370C454.649 374.137 451.618 389.048 446.173 392.928C446.144 393.166 446.046 393.328 445.871 393.4C425.228 401.962 407.624 401.323 396.32 400.913C391.586 400.741 387.956 400.609 385.671 401.211L382.091 389.909L393.7 385.924Z" fill="#2B44FF"/>
<path fill-rule="evenodd" clip-rule="evenodd" d="M373.103 395.284C373.015 394.117 372.033 393.176 370.872 393.328C369.705 393.48 368.358 393.723 367.626 394.08C366.156 394.797 363.576 396.664 363.576 396.664C364.407 398.37 378.521 427.328 378.521 427.328C378.521 427.328 383.053 426.596 382.112 423.867C381.172 421.138 380.595 419.311 380.595 419.311L380.012 402.365C379.993 401.802 379.513 401.367 378.951 401.402L376.689 401.544C376.689 401.544 374.415 399.703 373.689 398.212C373.346 397.508 373.181 396.331 373.103 395.284Z" fill="#E4E4E4"/>
<path fill-rule="evenodd" clip-rule="evenodd" d="M458.066 445.322C456.978 444.889 455.7 445.36 455.328 446.471C454.954 447.587 454.581 448.904 454.581 449.72C454.581 451.356 455.126 454.495 455.126 454.495C457.023 454.495 489.219 454.495 489.219 454.495C489.219 454.495 490.548 450.098 487.685 449.748C484.822 449.397 482.928 449.115 482.928 449.115L467.454 442.211C466.939 441.982 466.336 442.223 466.122 442.744L465.258 444.84C465.258 444.84 462.608 446.077 460.95 446.077C460.168 446.077 459.04 445.71 458.066 445.322Z" fill="#E4E4E4"/>
<path fill-rule="evenodd" clip-rule="evenodd" d="M441.694 356.281L422.412 342.112L418.149 352.656L437.243 360.579C442.644 366.927 445.663 369.573 446.302 368.518C446.841 367.628 446.42 366.795 446.032 366.028C445.73 365.43 445.448 364.872 445.655 364.358C446.13 363.185 449.757 363.309 453.194 363.573C456.632 363.838 455.63 362.307 454.801 361.551C451.292 359.45 446.923 357.693 441.694 356.281ZM340.576 381.247C342.348 377.65 348.38 342.601 348.38 342.601L361.012 342.65C361.012 342.65 349.312 380.445 348.38 382.757C347.169 385.761 349.226 390.126 350.621 393.086C350.837 393.543 351.037 393.968 351.207 394.348C349.271 395.215 348.341 394.167 347.361 393.062C346.253 391.815 345.081 390.495 342.323 391.779C341.257 392.275 340.249 392.861 339.264 393.434C335.861 395.414 332.734 397.233 328.481 394.607C327.807 394.19 327.068 392.623 328.853 391.398C333.301 388.346 339.71 383.005 340.576 381.247Z" fill="#B28B67"/>
<path fill-rule="evenodd" clip-rule="evenodd" d="M384.278 289.558L389.505 288.661C408.898 305.426 416.864 337.634 440.636 354.695L434.914 361.793C393.674 356.683 383.453 317.397 384.278 289.558Z" fill="#E87613"/>
<path fill-rule="evenodd" clip-rule="evenodd" d="M361.492 355.291C361.492 355.291 392.929 355.291 407.741 355.291C409.855 355.291 409.456 352.238 409.151 350.697C405.625 332.912 391.862 313.742 391.862 288.426L378.521 286.333C367.487 304.092 363.671 325.957 361.492 355.291Z" fill="#DDE3E9"/>
<path fill-rule="evenodd" clip-rule="evenodd" d="M363.264 303.581C360.837 303.407 358.646 302.39 357.261 299.89C352.385 291.085 354.146 286.238 359.357 284.644C362.222 283.768 364.917 284.366 368.143 285.082C370.784 285.668 373.78 286.333 377.517 286.333C377.879 286.333 378.208 286.357 378.507 286.404L382.934 286.657C382.934 286.657 400.907 347.613 392.848 367.994H356.292C354.213 372.99 352.175 377.349 350.254 380.697H340.336C339.269 346.169 352.332 319.6 363.264 303.581Z" fill="#FF9B21"/>
<path fill-rule="evenodd" clip-rule="evenodd" d="M356.292 367.994C359.019 361.44 361.816 353.789 364.507 345.888C365.509 354.589 367.177 363.328 369.955 367.994H356.292Z" fill="black" fill-opacity="0.1"/>
<path d="M33 327.217C40.735 322.751 50.265 322.751 58 327.217L72.4042 335.533C80.1392 339.999 84.9042 348.252 84.9042 357.184V373.816C84.9042 382.748 80.1392 391.001 72.4042 395.467L58 403.783C50.265 408.249 40.735 408.249 33 403.783L18.5958 395.467C10.8608 391.001 6.09584 382.748 6.09584 373.816V357.184C6.09584 348.252 10.8608 339.999 18.5958 335.533L33 327.217Z" fill="#FB6340"/>
<circle cx="1034" cy="25" r="25" fill="#FB6340"/>
<circle cx="974" cy="374" r="50" fill="#2DCE89"/>
<defs>
<filter id="filter0_d" x="370.13" y="116.603" width="343.949" height="242.09" filterUnits="userSpaceOnUse" color-interpolation-filters="sRGB">
<feFlood flood-opacity="0" result="BackgroundImageFix"/>
<feColorMatrix in="SourceAlpha" type="matrix" values="0 0 0 0 0 0 0 0 0 0 0 0 0 0 0 0 0 0 127 0"/>
<feOffset dx="5" dy="8"/>
<feGaussianBlur stdDeviation="5"/>
<feColorMatrix type="matrix" values="0 0 0 0 0.368627 0 0 0 0 0.447059 0 0 0 0 0.894118 0 0 0 0.3 0"/>
<feBlend mode="normal" in2="BackgroundImageFix" result="effect1_dropShadow"/>
<feBlend mode="normal" in="SourceGraphic" in2="effect1_dropShadow" result="shape"/>
</filter>
<filter id="filter1_d" x="491.656" y="132.877" width="91.3588" height="57.5199" filterUnits="userSpaceOnUse" color-interpolation-filters="sRGB">
<feFlood flood-opacity="0" result="BackgroundImageFix"/>
<feColorMatrix in="SourceAlpha" type="matrix" values="0 0 0 0 0 0 0 0 0 0 0 0 0 0 0 0 0 0 127 0"/>
<feOffset dy="2"/>
<feGaussianBlur stdDeviation="5"/>
<feColorMatrix type="matrix" values="0 0 0 0 0.368627 0 0 0 0 0.447059 0 0 0 0 0.894118 0 0 0 0.5 0"/>
<feBlend mode="normal" in2="BackgroundImageFix" result="effect1_dropShadow"/>
<feBlend mode="normal" in="SourceGraphic" in2="effect1_dropShadow" result="shape"/>
</filter>
<filter id="filter2_d" x="593.173" y="142.678" width="25.3281" height="50.6164" filterUnits="userSpaceOnUse" color-interpolation-filters="sRGB">
<feFlood flood-opacity="0" result="BackgroundImageFix"/>
<feColorMatrix in="SourceAlpha" type="matrix" values="0 0 0 0 0 0 0 0 0 0 0 0 0 0 0 0 0 0 127 0"/>
<feOffset dy="2"/>
<feGaussianBlur stdDeviation="5"/>
<feColorMatrix type="matrix" values="0 0 0 0 0.368627 0 0 0 0 0.447059 0 0 0 0 0.894118 0 0 0 0.5 0"/>
<feBlend mode="normal" in2="BackgroundImageFix" result="effect1_dropShadow"/>
<feBlend mode="normal" in="SourceGraphic" in2="effect1_dropShadow" result="shape"/>
</filter>
<filter id="filter3_d" x="602.764" y="134.416" width="25.3281" height="58.878" filterUnits="userSpaceOnUse" color-interpolation-filters="sRGB">
<feFlood flood-opacity="0" result="BackgroundImageFix"/>
<feColorMatrix in="SourceAlpha" type="matrix" values="0 0 0 0 0 0 0 0 0 0 0 0 0 0 0 0 0 0 127 0"/>
<feOffset dy="2"/>
<feGaussianBlur stdDeviation="5"/>
<feColorMatrix type="matrix" values="0 0 0 0 0.368627 0 0 0 0 0.447059 0 0 0 0 0.894118 0 0 0 0.5 0"/>
<feBlend mode="normal" in2="BackgroundImageFix" result="effect1_dropShadow"/>
<feBlend mode="normal" in="SourceGraphic" in2="effect1_dropShadow" result="shape"/>
</filter>
<filter id="filter4_d" x="613.421" y="165.032" width="24.7953" height="28.2616" filterUnits="userSpaceOnUse" color-interpolation-filters="sRGB">
<feFlood flood-opacity="0" result="BackgroundImageFix"/>
<feColorMatrix in="SourceAlpha" type="matrix" values="0 0 0 0 0 0 0 0 0 0 0 0 0 0 0 0 0 0 127 0"/>
<feOffset dy="2"/>
<feGaussianBlur stdDeviation="5"/>
<feColorMatrix type="matrix" values="0 0 0 0 0.368627 0 0 0 0 0.447059 0 0 0 0 0.894118 0 0 0 0.5 0"/>
<feBlend mode="normal" in2="BackgroundImageFix" result="effect1_dropShadow"/>
<feBlend mode="normal" in="SourceGraphic" in2="effect1_dropShadow" result="shape"/>
</filter>
<filter id="filter5_d" x="623.544" y="148.023" width="24.7953" height="45.2707" filterUnits="userSpaceOnUse" color-interpolation-filters="sRGB">
<feFlood flood-opacity="0" result="BackgroundImageFix"/>
<feColorMatrix in="SourceAlpha" type="matrix" values="0 0 0 0 0 0 0 0 0 0 0 0 0 0 0 0 0 0 127 0"/>
<feOffset dy="2"/>
<feGaussianBlur stdDeviation="5"/>
<feColorMatrix type="matrix" values="0 0 0 0 0.368627 0 0 0 0 0.447059 0 0 0 0 0.894118 0 0 0 0.5 0"/>
<feBlend mode="normal" in2="BackgroundImageFix" result="effect1_dropShadow"/>
<feBlend mode="normal" in="SourceGraphic" in2="effect1_dropShadow" result="shape"/>
</filter>
<filter id="filter6_d" x="633.667" y="151.425" width="25.3281" height="41.8689" filterUnits="userSpaceOnUse" color-interpolation-filters="sRGB">
<feFlood flood-opacity="0" result="BackgroundImageFix"/>
<feColorMatrix in="SourceAlpha" type="matrix" values="0 0 0 0 0 0 0 0 0 0 0 0 0 0 0 0 0 0 127 0"/>
<feOffset dy="2"/>
<feGaussianBlur stdDeviation="5"/>
<feColorMatrix type="matrix" values="0 0 0 0 0.368627 0 0 0 0 0.447059 0 0 0 0 0.894118 0 0 0 0.5 0"/>
<feBlend mode="normal" in2="BackgroundImageFix" result="effect1_dropShadow"/>
<feBlend mode="normal" in="SourceGraphic" in2="effect1_dropShadow" result="shape"/>
</filter>
<filter id="filter7_d" x="643.791" y="134.416" width="25.3281" height="58.878" filterUnits="userSpaceOnUse" color-interpolation-filters="sRGB">
<feFlood flood-opacity="0" result="BackgroundImageFix"/>
<feColorMatrix in="SourceAlpha" type="matrix" values="0 0 0 0 0 0 0 0 0 0 0 0 0 0 0 0 0 0 127 0"/>
<feOffset dy="2"/>
<feGaussianBlur stdDeviation="5"/>
<feColorMatrix type="matrix" values="0 0 0 0 0.368627 0 0 0 0 0.447059 0 0 0 0 0.894118 0 0 0 0.5 0"/>
<feBlend mode="normal" in2="BackgroundImageFix" result="effect1_dropShadow"/>
<feBlend mode="normal" in="SourceGraphic" in2="effect1_dropShadow" result="shape"/>
</filter>
<filter id="filter8_d" x="653.914" y="137.817" width="25.3281" height="55.4762" filterUnits="userSpaceOnUse" color-interpolation-filters="sRGB">
<feFlood flood-opacity="0" result="BackgroundImageFix"/>
<feColorMatrix in="SourceAlpha" type="matrix" values="0 0 0 0 0 0 0 0 0 0 0 0 0 0 0 0 0 0 127 0"/>
<feOffset dy="2"/>
<feGaussianBlur stdDeviation="5"/>
<feColorMatrix type="matrix" values="0 0 0 0 0.368627 0 0 0 0 0.447059 0 0 0 0 0.894118 0 0 0 0.5 0"/>
<feBlend mode="normal" in2="BackgroundImageFix" result="effect1_dropShadow"/>
<feBlend mode="normal" in="SourceGraphic" in2="effect1_dropShadow" result="shape"/>
</filter>
</defs>
</svg>
