<svg width="780" height="440" viewBox="0 0 780 440" fill="none" xmlns="http://www.w3.org/2000/svg">
<g clip-path="url(#clip0)">
<rect width="780" height="440" fill="#5E72E4"/>
<circle cx="390" cy="220" r="157" stroke="white" stroke-opacity="0.05" stroke-width="40"/>
<circle cx="389.5" cy="219.5" r="280.5" stroke="white" stroke-opacity="0.04" stroke-width="80"/>
<circle cx="390" cy="220" r="105" stroke="white" stroke-opacity="0.08" stroke-width="20"/>
<circle cx="390" cy="220" r="25" fill="white" fill-opacity="0.1"/>
<path d="M682.982 326H647.357V336.179H671.786C668.223 351.446 657.027 364.17 642.268 369.259L583.741 310.732C589.848 292.92 607.152 280.196 627 280.196C642.268 280.196 656.009 287.83 664.661 299.536L672.295 292.92C662.116 279.179 645.83 270.018 627 270.018C600.536 270.018 578.143 288.848 572.545 313.786L639.723 380.964C664.152 374.857 682.982 352.464 682.982 326ZM571.018 326.509C571.018 340.759 576.616 354.5 587.304 365.187C597.991 375.875 612.241 381.473 625.982 381.473L571.018 326.509Z" fill="white"/>
<path d="M627 254.75C587.813 254.75 555.75 286.813 555.75 326C555.75 365.188 587.813 397.25 627 397.25C666.188 397.25 698.25 365.188 698.25 326C698.25 286.813 666.188 254.75 627 254.75ZM587.304 365.696C576.616 355.009 571.018 340.759 571.018 327.018L626.491 381.982C612.241 381.473 597.991 376.384 587.304 365.696ZM639.214 380.455L572.545 313.786C578.143 288.848 600.536 270.018 627 270.018C645.83 270.018 662.116 279.179 672.295 292.92L664.661 299.536C656.009 287.83 642.268 280.196 627 280.196C607.152 280.196 590.357 292.92 583.741 310.732L642.268 369.259C657.027 364.17 668.223 351.446 671.786 336.179H647.357V326H682.982C682.982 352.464 664.152 374.857 639.214 380.455Z" fill="#663399"/>
<rect x="100" y="95" width="388" height="74" fill="white"/>
<rect x="103" y="295" width="262" height="74" fill="white"/>
<path d="M143.06 143.084L143.636 146H147.236V132.104H136.436V136.316H142.124C141.956 138.116 141.356 139.496 140.324 140.456C139.316 141.392 137.876 141.86 136.004 141.86C134.732 141.86 133.652 141.62 132.764 141.14C131.876 140.636 131.156 139.976 130.604 139.16C130.052 138.344 129.644 137.432 129.38 136.424C129.14 135.392 129.02 134.336 129.02 133.256C129.02 132.128 129.14 131.036 129.38 129.98C129.644 128.924 130.052 127.988 130.604 127.172C131.156 126.332 131.876 125.672 132.764 125.192C133.652 124.688 134.732 124.436 136.004 124.436C137.372 124.436 138.536 124.796 139.496 125.516C140.456 126.236 141.104 127.316 141.44 128.756H146.84C146.696 127.292 146.3 125.996 145.652 124.868C145.004 123.74 144.176 122.792 143.168 122.024C142.184 121.256 141.068 120.68 139.82 120.296C138.596 119.888 137.324 119.684 136.004 119.684C134.036 119.684 132.26 120.032 130.676 120.728C129.116 121.424 127.796 122.384 126.716 123.608C125.636 124.832 124.808 126.272 124.232 127.928C123.656 129.56 123.368 131.336 123.368 133.256C123.368 135.128 123.656 136.88 124.232 138.512C124.808 140.12 125.636 141.524 126.716 142.724C127.796 143.924 129.116 144.872 130.676 145.568C132.26 146.24 134.036 146.576 136.004 146.576C137.252 146.576 138.488 146.324 139.712 145.82C140.936 145.292 142.052 144.38 143.06 143.084ZM151.8 120.296V146H171.312V141.248H157.452V134.948H169.908V130.556H157.452V125.048H171.024V120.296H151.8ZM180.832 125.048V146H186.484V125.048H194.188V120.296H173.128V125.048H180.832ZM202.84 125.048V146H208.492V125.048H216.196V120.296H195.136V125.048H202.84ZM219.16 120.296V146H224.812V120.296H219.16ZM229.777 120.296V146H235.069V128.792H235.141L245.833 146H251.485V120.296H246.193V137.54H246.121L235.393 120.296H229.777ZM275.037 143.084L275.613 146H279.213V132.104H268.413V136.316H274.101C273.933 138.116 273.333 139.496 272.301 140.456C271.293 141.392 269.853 141.86 267.981 141.86C266.709 141.86 265.629 141.62 264.741 141.14C263.853 140.636 263.133 139.976 262.581 139.16C262.029 138.344 261.621 137.432 261.357 136.424C261.117 135.392 260.997 134.336 260.997 133.256C260.997 132.128 261.117 131.036 261.357 129.98C261.621 128.924 262.029 127.988 262.581 127.172C263.133 126.332 263.853 125.672 264.741 125.192C265.629 124.688 266.709 124.436 267.981 124.436C269.349 124.436 270.513 124.796 271.473 125.516C272.433 126.236 273.081 127.316 273.417 128.756H278.817C278.673 127.292 278.277 125.996 277.629 124.868C276.981 123.74 276.153 122.792 275.145 122.024C274.161 121.256 273.045 120.68 271.797 120.296C270.573 119.888 269.301 119.684 267.981 119.684C266.013 119.684 264.237 120.032 262.653 120.728C261.093 121.424 259.773 122.384 258.693 123.608C257.613 124.832 256.785 126.272 256.209 127.928C255.633 129.56 255.345 131.336 255.345 133.256C255.345 135.128 255.633 136.88 256.209 138.512C256.785 140.12 257.613 141.524 258.693 142.724C259.773 143.924 261.093 144.872 262.653 145.568C264.237 146.24 266.013 146.576 267.981 146.576C269.229 146.576 270.465 146.324 271.689 145.82C272.913 145.292 274.029 144.38 275.037 143.084ZM307.668 137.468H302.196C302.172 139.052 302.46 140.42 303.06 141.572C303.66 142.724 304.464 143.672 305.472 144.416C306.504 145.16 307.68 145.7 309 146.036C310.344 146.396 311.724 146.576 313.14 146.576C314.892 146.576 316.428 146.372 317.748 145.964C319.092 145.556 320.208 144.992 321.096 144.272C322.008 143.528 322.692 142.652 323.148 141.644C323.604 140.636 323.832 139.544 323.832 138.368C323.832 136.928 323.52 135.752 322.896 134.84C322.296 133.904 321.576 133.16 320.736 132.608C319.896 132.056 319.044 131.66 318.18 131.42C317.34 131.156 316.68 130.976 316.2 130.88C314.592 130.472 313.284 130.136 312.276 129.872C311.292 129.608 310.512 129.344 309.936 129.08C309.384 128.816 309.012 128.528 308.82 128.216C308.628 127.904 308.532 127.496 308.532 126.992C308.532 126.44 308.652 125.984 308.892 125.624C309.132 125.264 309.432 124.964 309.792 124.724C310.176 124.484 310.596 124.316 311.052 124.22C311.508 124.124 311.964 124.076 312.42 124.076C313.116 124.076 313.752 124.136 314.328 124.256C314.928 124.376 315.456 124.58 315.912 124.868C316.368 125.156 316.728 125.552 316.992 126.056C317.28 126.56 317.448 127.196 317.496 127.964H322.968C322.968 126.476 322.68 125.216 322.104 124.184C321.552 123.128 320.796 122.264 319.836 121.592C318.876 120.92 317.772 120.44 316.524 120.152C315.3 119.84 314.016 119.684 312.672 119.684C311.52 119.684 310.368 119.84 309.216 120.152C308.064 120.464 307.032 120.944 306.12 121.592C305.208 122.24 304.464 123.056 303.888 124.04C303.336 125 303.06 126.14 303.06 127.46C303.06 128.636 303.276 129.644 303.708 130.484C304.164 131.3 304.752 131.984 305.472 132.536C306.192 133.088 307.008 133.544 307.92 133.904C308.832 134.24 309.768 134.528 310.728 134.768C311.664 135.032 312.588 135.272 313.5 135.488C314.412 135.704 315.228 135.956 315.948 136.244C316.668 136.532 317.244 136.892 317.676 137.324C318.132 137.756 318.36 138.32 318.36 139.016C318.36 139.664 318.192 140.204 317.856 140.636C317.52 141.044 317.1 141.368 316.596 141.608C316.092 141.848 315.552 142.016 314.976 142.112C314.4 142.184 313.86 142.22 313.356 142.22C312.612 142.22 311.892 142.136 311.196 141.968C310.5 141.776 309.888 141.5 309.36 141.14C308.856 140.756 308.448 140.264 308.136 139.664C307.824 139.064 307.668 138.332 307.668 137.468ZM332.883 125.048V146H338.535V125.048H346.239V120.296H325.179V125.048H332.883ZM352.378 136.064L355.726 126.632H355.798L359.038 136.064H352.378ZM352.918 120.296L343.198 146H348.886L350.902 140.276H360.514L362.458 146H368.326L358.714 120.296H352.918ZM376.195 131.924V124.688H382.387C383.683 124.688 384.655 124.976 385.303 125.552C385.951 126.104 386.275 127.004 386.275 128.252C386.275 129.548 385.951 130.484 385.303 131.06C384.655 131.636 383.683 131.924 382.387 131.924H376.195ZM370.543 120.296V146H376.195V135.956H381.847C383.263 135.956 384.283 136.268 384.907 136.892C385.531 137.516 385.939 138.5 386.131 139.844C386.275 140.876 386.383 141.956 386.455 143.084C386.527 144.212 386.719 145.184 387.031 146H392.683C392.419 145.64 392.215 145.208 392.071 144.704C391.951 144.176 391.855 143.624 391.783 143.048C391.735 142.472 391.699 141.908 391.675 141.356C391.651 140.804 391.627 140.324 391.603 139.916C391.555 139.268 391.459 138.62 391.315 137.972C391.195 137.324 390.991 136.736 390.703 136.208C390.415 135.656 390.043 135.188 389.587 134.804C389.131 134.396 388.555 134.096 387.859 133.904V133.832C389.299 133.256 390.331 132.416 390.955 131.312C391.603 130.208 391.927 128.9 391.927 127.388C391.927 126.404 391.747 125.492 391.387 124.652C391.051 123.788 390.547 123.032 389.875 122.384C389.227 121.736 388.435 121.232 387.499 120.872C386.587 120.488 385.555 120.296 384.403 120.296H370.543ZM401.578 125.048V146H407.23V125.048H414.934V120.296H393.874V125.048H401.578ZM417.898 120.296V146H437.41V141.248H423.55V134.948H436.006V130.556H423.55V125.048H437.122V120.296H417.898ZM446.894 141.248V125.048H450.926C452.318 125.048 453.482 125.252 454.418 125.66C455.378 126.044 456.146 126.608 456.722 127.352C457.298 128.096 457.706 128.996 457.946 130.052C458.21 131.084 458.342 132.248 458.342 133.544C458.342 134.96 458.162 136.16 457.802 137.144C457.442 138.128 456.962 138.932 456.362 139.556C455.762 140.156 455.078 140.588 454.31 140.852C453.542 141.116 452.75 141.248 451.934 141.248H446.894ZM441.242 120.296V146H452.33C454.298 146 456.002 145.676 457.442 145.028C458.906 144.356 460.118 143.444 461.078 142.292C462.062 141.14 462.794 139.772 463.274 138.188C463.754 136.604 463.994 134.876 463.994 133.004C463.994 130.868 463.694 129.008 463.094 127.424C462.518 125.84 461.702 124.52 460.646 123.464C459.614 122.408 458.378 121.616 456.938 121.088C455.522 120.56 453.986 120.296 452.33 120.296H441.242Z" fill="black"/>
<path d="M174.096 214.496L164.736 248H156.816L150.528 224.144L143.952 248L136.08 248.048L127.056 214.496H134.256L140.16 240.512L146.976 214.496H154.464L160.896 240.368L166.848 214.496H174.096ZM185.204 214.496V248H178.484V214.496H185.204ZM214.643 214.496V219.92H205.715V248H198.995V219.92H190.067V214.496H214.643ZM247.338 214.496V248H240.618V233.744H226.266V248H219.546V214.496H226.266V228.272H240.618V214.496H247.338Z" fill="#F9AC00"/>
<path d="M154.162 327.176C153.752 325.406 152.75 324.17 151.156 323.467C150.266 323.08 149.275 322.887 148.186 322.887C146.1 322.887 144.383 323.678 143.035 325.26C141.699 326.83 141.031 329.197 141.031 332.361C141.031 335.549 141.758 337.805 143.211 339.129C144.664 340.453 146.316 341.115 148.168 341.115C149.984 341.115 151.473 340.594 152.633 339.551C153.793 338.496 154.508 337.119 154.777 335.42H148.783V331.096H159.576V345H155.99L155.445 341.766C154.402 342.996 153.465 343.863 152.633 344.367C151.203 345.246 149.445 345.686 147.359 345.686C143.926 345.686 141.113 344.496 138.922 342.117C136.637 339.727 135.494 336.457 135.494 332.309C135.494 328.113 136.648 324.75 138.957 322.219C141.266 319.688 144.318 318.422 148.115 318.422C151.408 318.422 154.051 319.26 156.043 320.936C158.047 322.6 159.195 324.68 159.488 327.176H154.162ZM171.846 335.209H178.42L175.186 325.014L171.846 335.209ZM172.18 319.09H178.297L187.473 345H181.602L179.932 339.674H170.387L168.594 345H162.934L172.18 319.09ZM206.932 319.09V323.678H199.18V345H193.73V323.678H185.943V319.09H206.932ZM214.033 337.002C214.197 338.186 214.52 339.07 215 339.656C215.879 340.723 217.385 341.256 219.518 341.256C220.795 341.256 221.832 341.115 222.629 340.834C224.141 340.295 224.896 339.293 224.896 337.828C224.896 336.973 224.521 336.311 223.771 335.842C223.021 335.385 221.844 334.98 220.238 334.629L217.496 334.014C214.801 333.404 212.938 332.742 211.906 332.027C210.16 330.832 209.287 328.963 209.287 326.42C209.287 324.1 210.131 322.172 211.818 320.637C213.506 319.102 215.984 318.334 219.254 318.334C221.984 318.334 224.311 319.061 226.232 320.514C228.166 321.955 229.18 324.053 229.273 326.807H224.07C223.977 325.248 223.297 324.141 222.031 323.484C221.188 323.051 220.139 322.834 218.885 322.834C217.49 322.834 216.377 323.115 215.545 323.678C214.713 324.24 214.297 325.025 214.297 326.033C214.297 326.959 214.707 327.65 215.527 328.107C216.055 328.412 217.18 328.77 218.902 329.18L223.367 330.252C225.324 330.721 226.801 331.348 227.797 332.133C229.344 333.352 230.117 335.115 230.117 337.424C230.117 339.791 229.209 341.76 227.393 343.33C225.588 344.889 223.033 345.668 219.729 345.668C216.354 345.668 213.699 344.9 211.766 343.365C209.832 341.818 208.865 339.697 208.865 337.002H214.033ZM239.381 323.59V329.303H245.744C246.881 329.303 247.801 329.092 248.504 328.67C249.219 328.236 249.576 327.475 249.576 326.385C249.576 325.178 249.107 324.381 248.17 323.994C247.361 323.725 246.33 323.59 245.076 323.59H239.381ZM239.381 333.592V340.5H245.744C246.881 340.5 247.766 340.348 248.398 340.043C249.547 339.48 250.121 338.402 250.121 336.809C250.121 335.461 249.564 334.535 248.451 334.031C247.83 333.75 246.957 333.604 245.832 333.592H239.381ZM246.799 319.09C249.975 319.137 252.225 320.057 253.549 321.85C254.346 322.951 254.744 324.27 254.744 325.805C254.744 327.387 254.346 328.658 253.549 329.619C253.104 330.158 252.447 330.65 251.58 331.096C252.904 331.576 253.9 332.338 254.568 333.381C255.248 334.424 255.588 335.689 255.588 337.178C255.588 338.713 255.201 340.09 254.428 341.309C253.936 342.117 253.32 342.797 252.582 343.348C251.75 343.98 250.766 344.414 249.629 344.648C248.504 344.883 247.279 345 245.955 345H234.213V319.09H246.799ZM274.924 319.09H281.059L272.393 335.262V345H266.979V335.262L258.014 319.09H264.395L269.773 330.375L274.924 319.09ZM296.703 335.174V335.771C296.75 337.775 296.967 339.188 297.354 340.008C297.752 340.816 298.596 341.221 299.885 341.221C301.162 341.221 302.006 340.775 302.416 339.885C302.662 339.357 302.785 338.467 302.785 337.213V319.09H308.199V337.125C308.199 339.328 307.818 341.074 307.057 342.363C305.768 344.543 303.441 345.633 300.078 345.633C296.715 345.633 294.459 344.754 293.311 342.996C292.162 341.227 291.588 338.818 291.588 335.771V335.174H296.703ZM317.498 337.002C317.662 338.186 317.984 339.07 318.465 339.656C319.344 340.723 320.85 341.256 322.982 341.256C324.26 341.256 325.297 341.115 326.094 340.834C327.605 340.295 328.361 339.293 328.361 337.828C328.361 336.973 327.986 336.311 327.236 335.842C326.486 335.385 325.309 334.98 323.703 334.629L320.961 334.014C318.266 333.404 316.402 332.742 315.371 332.027C313.625 330.832 312.752 328.963 312.752 326.42C312.752 324.1 313.596 322.172 315.283 320.637C316.971 319.102 319.449 318.334 322.719 318.334C325.449 318.334 327.775 319.061 329.697 320.514C331.631 321.955 332.645 324.053 332.738 326.807H327.535C327.441 325.248 326.762 324.141 325.496 323.484C324.652 323.051 323.604 322.834 322.35 322.834C320.955 322.834 319.842 323.115 319.01 323.678C318.178 324.24 317.762 325.025 317.762 326.033C317.762 326.959 318.172 327.65 318.992 328.107C319.52 328.412 320.645 328.77 322.367 329.18L326.832 330.252C328.789 330.721 330.266 331.348 331.262 332.133C332.809 333.352 333.582 335.115 333.582 337.424C333.582 339.791 332.674 341.76 330.857 343.33C329.053 344.889 326.498 345.668 323.193 345.668C319.818 345.668 317.164 344.9 315.23 343.365C313.297 341.818 312.33 339.697 312.33 337.002H317.498Z" fill="black"/>
</g>
<defs>
<clipPath id="clip0">
<rect width="780" height="440" fill="white"/>
</clipPath>
</defs>
</svg>
