<svg width="780" height="440" viewBox="0 0 780 440" fill="none" xmlns="http://www.w3.org/2000/svg">
<g clip-path="url(#clip0)">
<rect width="780" height="440" fill="#F5365C"/>
<circle cx="390" cy="220" r="157" stroke="white" stroke-opacity="0.05" stroke-width="40"/>
<circle cx="389.5" cy="219.5" r="280.5" stroke="white" stroke-opacity="0.04" stroke-width="80"/>
<circle cx="390" cy="220" r="105" stroke="white" stroke-opacity="0.08" stroke-width="20"/>
<circle cx="390" cy="220" r="25" fill="white" fill-opacity="0.1"/>
<rect x="100" y="95" width="356" height="74" fill="white"/>
<rect x="103" y="196" width="247" height="74" fill="white"/>
<path d="M128.336 237.468H122.864C122.84 239.052 123.128 240.42 123.728 241.572C124.328 242.724 125.132 243.672 126.14 244.416C127.172 245.16 128.348 245.7 129.668 246.036C131.012 246.396 132.392 246.576 133.808 246.576C135.56 246.576 137.096 246.372 138.416 245.964C139.76 245.556 140.876 244.992 141.764 244.272C142.676 243.528 143.36 242.652 143.816 241.644C144.272 240.636 144.5 239.544 144.5 238.368C144.5 236.928 144.188 235.752 143.564 234.84C142.964 233.904 142.244 233.16 141.404 232.608C140.564 232.056 139.712 231.66 138.848 231.42C138.008 231.156 137.348 230.976 136.868 230.88C135.26 230.472 133.952 230.136 132.944 229.872C131.96 229.608 131.18 229.344 130.604 229.08C130.052 228.816 129.68 228.528 129.488 228.216C129.296 227.904 129.2 227.496 129.2 226.992C129.2 226.44 129.32 225.984 129.56 225.624C129.8 225.264 130.1 224.964 130.46 224.724C130.844 224.484 131.264 224.316 131.72 224.22C132.176 224.124 132.632 224.076 133.088 224.076C133.784 224.076 134.42 224.136 134.996 224.256C135.596 224.376 136.124 224.58 136.58 224.868C137.036 225.156 137.396 225.552 137.66 226.056C137.948 226.56 138.116 227.196 138.164 227.964H143.636C143.636 226.476 143.348 225.216 142.772 224.184C142.22 223.128 141.464 222.264 140.504 221.592C139.544 220.92 138.44 220.44 137.192 220.152C135.968 219.84 134.684 219.684 133.34 219.684C132.188 219.684 131.036 219.84 129.884 220.152C128.732 220.464 127.7 220.944 126.788 221.592C125.876 222.24 125.132 223.056 124.556 224.04C124.004 225 123.728 226.14 123.728 227.46C123.728 228.636 123.944 229.644 124.376 230.484C124.832 231.3 125.42 231.984 126.14 232.536C126.86 233.088 127.676 233.544 128.588 233.904C129.5 234.24 130.436 234.528 131.396 234.768C132.332 235.032 133.256 235.272 134.168 235.488C135.08 235.704 135.896 235.956 136.616 236.244C137.336 236.532 137.912 236.892 138.344 237.324C138.8 237.756 139.028 238.32 139.028 239.016C139.028 239.664 138.86 240.204 138.524 240.636C138.188 241.044 137.768 241.368 137.264 241.608C136.76 241.848 136.22 242.016 135.644 242.112C135.068 242.184 134.528 242.22 134.024 242.22C133.28 242.22 132.56 242.136 131.864 241.968C131.168 241.776 130.556 241.5 130.028 241.14C129.524 240.756 129.116 240.264 128.804 239.664C128.492 239.064 128.336 238.332 128.336 237.468ZM164.999 228.936H170.471C170.303 227.448 169.895 226.128 169.247 224.976C168.599 223.824 167.771 222.864 166.763 222.096C165.779 221.304 164.651 220.704 163.379 220.296C162.131 219.888 160.799 219.684 159.383 219.684C157.415 219.684 155.639 220.032 154.055 220.728C152.495 221.424 151.175 222.384 150.095 223.608C149.015 224.832 148.187 226.272 147.611 227.928C147.035 229.56 146.747 231.336 146.747 233.256C146.747 235.128 147.035 236.88 147.611 238.512C148.187 240.12 149.015 241.524 150.095 242.724C151.175 243.924 152.495 244.872 154.055 245.568C155.639 246.24 157.415 246.576 159.383 246.576C160.967 246.576 162.419 246.336 163.739 245.856C165.059 245.376 166.211 244.68 167.195 243.768C168.179 242.856 168.971 241.752 169.571 240.456C170.171 239.16 170.543 237.708 170.687 236.1H165.215C164.999 237.828 164.399 239.22 163.415 240.276C162.455 241.332 161.111 241.86 159.383 241.86C158.111 241.86 157.031 241.62 156.143 241.14C155.255 240.636 154.535 239.976 153.983 239.16C153.431 238.344 153.023 237.432 152.759 236.424C152.519 235.392 152.399 234.336 152.399 233.256C152.399 232.128 152.519 231.036 152.759 229.98C153.023 228.924 153.431 227.988 153.983 227.172C154.535 226.332 155.255 225.672 156.143 225.192C157.031 224.688 158.111 224.436 159.383 224.436C160.079 224.436 160.739 224.556 161.363 224.796C162.011 225.012 162.587 225.324 163.091 225.732C163.595 226.14 164.015 226.62 164.351 227.172C164.687 227.7 164.903 228.288 164.999 228.936ZM180.199 231.924V224.688H186.391C187.687 224.688 188.659 224.976 189.307 225.552C189.955 226.104 190.279 227.004 190.279 228.252C190.279 229.548 189.955 230.484 189.307 231.06C188.659 231.636 187.687 231.924 186.391 231.924H180.199ZM174.547 220.296V246H180.199V235.956H185.851C187.267 235.956 188.287 236.268 188.911 236.892C189.535 237.516 189.943 238.5 190.135 239.844C190.279 240.876 190.387 241.956 190.459 243.084C190.531 244.212 190.723 245.184 191.035 246H196.687C196.423 245.64 196.219 245.208 196.075 244.704C195.955 244.176 195.859 243.624 195.787 243.048C195.739 242.472 195.703 241.908 195.679 241.356C195.655 240.804 195.631 240.324 195.607 239.916C195.559 239.268 195.463 238.62 195.319 237.972C195.199 237.324 194.995 236.736 194.707 236.208C194.419 235.656 194.047 235.188 193.591 234.804C193.135 234.396 192.559 234.096 191.863 233.904V233.832C193.303 233.256 194.335 232.416 194.959 231.312C195.607 230.208 195.931 228.9 195.931 227.388C195.931 226.404 195.751 225.492 195.391 224.652C195.055 223.788 194.551 223.032 193.879 222.384C193.231 221.736 192.439 221.232 191.503 220.872C190.591 220.488 189.559 220.296 188.407 220.296H174.547ZM205.063 233.256C205.063 232.128 205.183 231.036 205.423 229.98C205.687 228.924 206.095 227.988 206.647 227.172C207.199 226.332 207.919 225.672 208.807 225.192C209.695 224.688 210.775 224.436 212.047 224.436C213.319 224.436 214.399 224.688 215.287 225.192C216.175 225.672 216.895 226.332 217.447 227.172C217.999 227.988 218.395 228.924 218.635 229.98C218.899 231.036 219.031 232.128 219.031 233.256C219.031 234.336 218.899 235.392 218.635 236.424C218.395 237.432 217.999 238.344 217.447 239.16C216.895 239.976 216.175 240.636 215.287 241.14C214.399 241.62 213.319 241.86 212.047 241.86C210.775 241.86 209.695 241.62 208.807 241.14C207.919 240.636 207.199 239.976 206.647 239.16C206.095 238.344 205.687 237.432 205.423 236.424C205.183 235.392 205.063 234.336 205.063 233.256ZM199.411 233.256C199.411 235.128 199.699 236.88 200.275 238.512C200.851 240.12 201.679 241.524 202.759 242.724C203.839 243.924 205.159 244.872 206.719 245.568C208.303 246.24 210.079 246.576 212.047 246.576C214.039 246.576 215.815 246.24 217.375 245.568C218.935 244.872 220.255 243.924 221.335 242.724C222.415 241.524 223.243 240.12 223.819 238.512C224.395 236.88 224.683 235.128 224.683 233.256C224.683 231.336 224.395 229.56 223.819 227.928C223.243 226.272 222.415 224.832 221.335 223.608C220.255 222.384 218.935 221.424 217.375 220.728C215.815 220.032 214.039 219.684 212.047 219.684C210.079 219.684 208.303 220.032 206.719 220.728C205.159 221.424 203.839 222.384 202.759 223.608C201.679 224.832 200.851 226.272 200.275 227.928C199.699 229.56 199.411 231.336 199.411 233.256ZM228.547 220.296V246H246.727V241.248H234.199V220.296H228.547ZM249.886 220.296V246H268.066V241.248H255.538V220.296H249.886ZM271.226 220.296V246H276.878V220.296H271.226ZM281.843 220.296V246H287.135V228.792H287.207L297.899 246H303.551V220.296H298.259V237.54H298.187L287.459 220.296H281.843ZM327.103 243.084L327.679 246H331.279V232.104H320.479V236.316H326.167C325.999 238.116 325.399 239.496 324.367 240.456C323.359 241.392 321.919 241.86 320.047 241.86C318.775 241.86 317.695 241.62 316.807 241.14C315.919 240.636 315.199 239.976 314.647 239.16C314.095 238.344 313.687 237.432 313.423 236.424C313.183 235.392 313.063 234.336 313.063 233.256C313.063 232.128 313.183 231.036 313.423 229.98C313.687 228.924 314.095 227.988 314.647 227.172C315.199 226.332 315.919 225.672 316.807 225.192C317.695 224.688 318.775 224.436 320.047 224.436C321.415 224.436 322.579 224.796 323.539 225.516C324.499 226.236 325.147 227.316 325.483 228.756H330.883C330.739 227.292 330.343 225.996 329.695 224.868C329.047 223.74 328.219 222.792 327.211 222.024C326.227 221.256 325.111 220.68 323.863 220.296C322.639 219.888 321.367 219.684 320.047 219.684C318.079 219.684 316.303 220.032 314.719 220.728C313.159 221.424 311.839 222.384 310.759 223.608C309.679 224.832 308.851 226.272 308.275 227.928C307.699 229.56 307.411 231.336 307.411 233.256C307.411 235.128 307.699 236.88 308.275 238.512C308.851 240.12 309.679 241.524 310.759 242.724C311.839 243.924 313.159 244.872 314.719 245.568C316.303 246.24 318.079 246.576 320.047 246.576C321.295 246.576 322.531 246.324 323.755 245.82C324.979 245.292 326.095 244.38 327.103 243.084Z" fill="black"/>
<rect x="103" y="295" width="353" height="74" fill="white"/>
<path d="M124.484 120.296V146H130.136V120.296H124.484ZM135.101 120.296V146H140.393V128.792H140.465L151.157 146H156.809V120.296H151.517V137.54H151.445L140.717 120.296H135.101ZM161.785 120.296V146H167.437V135.38H178.201V130.988H167.437V125.048H179.857V120.296H161.785ZM183.125 120.296V146H188.777V120.296H183.125ZM193.742 120.296V146H199.034V128.792H199.106L209.798 146H215.45V120.296H210.158V137.54H210.086L199.358 120.296H193.742ZM220.425 120.296V146H226.077V120.296H220.425ZM236.731 125.048V146H242.383V125.048H250.087V120.296H229.027V125.048H236.731ZM253.05 120.296V146H272.562V141.248H258.702V134.948H271.158V130.556H258.702V125.048H272.274V120.296H253.05ZM298.366 146L306.898 120.296H301.066L295.27 138.368H295.198L289.474 120.296H283.678L291.994 146H298.366ZM309.089 120.296V146H314.741V120.296H309.089ZM325.359 131.924V124.688H331.551C332.847 124.688 333.819 124.976 334.467 125.552C335.115 126.104 335.439 127.004 335.439 128.252C335.439 129.548 335.115 130.484 334.467 131.06C333.819 131.636 332.847 131.924 331.551 131.924H325.359ZM319.707 120.296V146H325.359V135.956H331.011C332.427 135.956 333.447 136.268 334.071 136.892C334.695 137.516 335.103 138.5 335.295 139.844C335.439 140.876 335.547 141.956 335.619 143.084C335.691 144.212 335.883 145.184 336.195 146H341.847C341.583 145.64 341.379 145.208 341.235 144.704C341.115 144.176 341.019 143.624 340.947 143.048C340.899 142.472 340.863 141.908 340.839 141.356C340.815 140.804 340.791 140.324 340.767 139.916C340.719 139.268 340.623 138.62 340.479 137.972C340.359 137.324 340.155 136.736 339.867 136.208C339.579 135.656 339.207 135.188 338.751 134.804C338.295 134.396 337.719 134.096 337.023 133.904V133.832C338.463 133.256 339.495 132.416 340.119 131.312C340.767 130.208 341.091 128.9 341.091 127.388C341.091 126.404 340.911 125.492 340.551 124.652C340.215 123.788 339.711 123.032 339.039 122.384C338.391 121.736 337.599 121.232 336.663 120.872C335.751 120.488 334.719 120.296 333.567 120.296H319.707ZM350.742 125.048V146H356.394V125.048H364.098V120.296H343.038V125.048H350.742ZM388.878 136.28V120.296H383.226V136.28C383.226 138.2 382.842 139.616 382.074 140.528C381.306 141.416 379.914 141.86 377.898 141.86C376.746 141.86 375.822 141.704 375.126 141.392C374.454 141.056 373.926 140.636 373.542 140.132C373.158 139.604 372.906 139.004 372.786 138.332C372.666 137.66 372.606 136.976 372.606 136.28V120.296H366.954V136.28C366.954 139.784 367.902 142.376 369.798 144.056C371.718 145.736 374.418 146.576 377.898 146.576C381.33 146.576 384.018 145.736 385.962 144.056C387.906 142.352 388.878 139.76 388.878 136.28ZM400.226 136.064L403.574 126.632H403.646L406.886 136.064H400.226ZM400.766 120.296L391.046 146H396.734L398.75 140.276H408.362L410.306 146H416.174L406.562 120.296H400.766ZM418.39 120.296V146H436.57V141.248H424.042V120.296H418.39Z" fill="black"/>
<path d="M388.125 212.53V254H377.345V212.53H388.125ZM396.788 254V212.53H407.568L427.478 237.885V212.53H438.203V254H427.478L407.568 228.645V254H396.788Z" fill="#F9AC00"/>
<path d="M125.826 335.209H132.4L129.166 325.014L125.826 335.209ZM126.16 319.09H132.277L141.453 345H135.582L133.912 339.674H124.367L122.574 345H116.914L126.16 319.09ZM144.67 319.09H150.348L160.666 337.178V319.09H165.711V345H160.297L149.715 326.596V345H144.67V319.09ZM188.193 327.176C187.783 325.406 186.781 324.17 185.188 323.467C184.297 323.08 183.307 322.887 182.217 322.887C180.131 322.887 178.414 323.678 177.066 325.26C175.73 326.83 175.062 329.197 175.062 332.361C175.062 335.549 175.789 337.805 177.242 339.129C178.695 340.453 180.348 341.115 182.199 341.115C184.016 341.115 185.504 340.594 186.664 339.551C187.824 338.496 188.539 337.119 188.809 335.42H182.814V331.096H193.607V345H190.021L189.477 341.766C188.434 342.996 187.496 343.863 186.664 344.367C185.234 345.246 183.477 345.686 181.391 345.686C177.957 345.686 175.145 344.496 172.953 342.117C170.668 339.727 169.525 336.457 169.525 332.309C169.525 328.113 170.68 324.75 172.988 322.219C175.297 319.688 178.35 318.422 182.146 318.422C185.439 318.422 188.082 319.26 190.074 320.936C192.078 322.6 193.227 324.68 193.52 327.176H188.193ZM198.793 319.09H204.295V335.016C204.295 336.797 204.506 338.098 204.928 338.918C205.584 340.371 207.014 341.098 209.217 341.098C211.408 341.098 212.832 340.371 213.488 338.918C213.91 338.098 214.121 336.797 214.121 335.016V319.09H219.623V335.016C219.623 337.77 219.195 339.914 218.34 341.449C216.746 344.262 213.705 345.668 209.217 345.668C204.729 345.668 201.682 344.262 200.076 341.449C199.221 339.914 198.793 337.77 198.793 335.016V319.09ZM224.809 319.09H230.223V340.342H243.055V345H224.809V319.09ZM253.9 335.209H260.475L257.24 325.014L253.9 335.209ZM254.234 319.09H260.352L269.527 345H263.656L261.986 339.674H252.441L250.648 345H244.988L254.234 319.09ZM278.246 323.59V330.551H284.381C285.6 330.551 286.514 330.41 287.123 330.129C288.201 329.637 288.74 328.664 288.74 327.211C288.74 325.641 288.219 324.586 287.176 324.047C286.59 323.742 285.711 323.59 284.539 323.59H278.246ZM285.664 319.09C287.48 319.125 288.875 319.348 289.848 319.758C290.832 320.168 291.664 320.771 292.344 321.568C292.906 322.225 293.352 322.951 293.68 323.748C294.008 324.545 294.172 325.453 294.172 326.473C294.172 327.703 293.861 328.916 293.24 330.111C292.619 331.295 291.594 332.133 290.164 332.625C291.359 333.105 292.203 333.791 292.695 334.682C293.199 335.561 293.451 336.908 293.451 338.725V340.465C293.451 341.648 293.498 342.451 293.592 342.873C293.732 343.541 294.061 344.033 294.576 344.35V345H288.617C288.453 344.426 288.336 343.963 288.266 343.611C288.125 342.885 288.049 342.141 288.037 341.379L288.002 338.971C287.979 337.318 287.674 336.217 287.088 335.666C286.514 335.115 285.43 334.84 283.836 334.84H278.246V345H272.955V319.09H285.664ZM325.109 323.766C324.359 324.504 323.316 325.822 321.98 327.721C320.645 329.607 319.525 331.559 318.623 333.574C317.908 335.156 317.264 337.09 316.689 339.375C316.115 341.66 315.828 343.535 315.828 345H310.625C310.777 340.43 312.277 335.678 315.125 330.744C316.965 327.686 318.506 325.553 319.748 324.346H307.039L307.109 319.846H325.109V323.766ZM327.447 337.758V333.17H334.654V325.963H339.277V333.17H346.484V337.758H339.277V345H334.654V337.758H327.447Z" fill="black"/>
<path d="M625 245L553.75 269.9L564.617 362.225L625 395L685.383 362.225L696.25 269.9L625 245Z" fill="#DD0031"/>
<path d="M625 245V261.65V261.575V337.55V395L685.383 362.225L696.25 269.9L625 245Z" fill="#C3002F"/>
<path d="M625 261.575L580.459 359.45H597.066L606.02 337.55H643.826L652.78 359.45H669.388L625 261.575ZM638.01 324.05H611.99L625 293.375L638.01 324.05Z" fill="white"/>
</g>
<defs>
<clipPath id="clip0">
<rect width="780" height="440" fill="white"/>
</clipPath>
</defs>
</svg>
