<svg width="450" height="300" viewBox="0 0 450 300" fill="none" xmlns="http://www.w3.org/2000/svg">
<g clip-path="url(#clip0)">
<rect width="450" height="300" fill="#FB6340"/>
<rect width="254.41" height="443.802" transform="matrix(0.958324 0.285685 -0.484827 0.87461 53.369 -116.144)" fill="white" fill-opacity="0.1"/>
<path d="M340 134L270 158.9L280.677 251.225L340 284L399.323 251.225L410 158.9L340 134Z" fill="#DD0031"/>
<path d="M340 134V150.65V150.575V226.55V284L399.323 251.225L410 158.9L340 134Z" fill="#C3002F"/>
<path d="M340 150.575L296.241 248.45H312.556L321.353 226.55H358.496L367.293 248.45H383.609L340 150.575ZM352.782 213.05H327.218L340 182.375L352.782 213.05Z" fill="white"/>
<path d="M68.85 182.35H54.95L52.65 189H45.3L57.85 154.05H66L78.55 189H71.15L68.85 182.35ZM66.95 176.75L61.9 162.15L56.85 176.75H66.95ZM98.591 160.9C101.891 160.9 104.558 161.95 106.591 164.05C108.624 166.117 109.641 169.017 109.641 172.75V189H102.641V173.7C102.641 171.5 102.091 169.817 100.991 168.65C99.891 167.45 98.391 166.85 96.491 166.85C94.5577 166.85 93.0243 167.45 91.891 168.65C90.791 169.817 90.241 171.5 90.241 173.7V189H83.241V161.3H90.241V164.75C91.1743 163.55 92.3577 162.617 93.791 161.95C95.2577 161.25 96.8577 160.9 98.591 160.9ZM127.148 160.85C129.214 160.85 131.031 161.267 132.598 162.1C134.164 162.9 135.398 163.95 136.298 165.25V161.3H143.348V189.2C143.348 191.767 142.831 194.05 141.798 196.05C140.764 198.083 139.214 199.683 137.148 200.85C135.081 202.05 132.581 202.65 129.648 202.65C125.714 202.65 122.481 201.733 119.948 199.9C117.448 198.067 116.031 195.567 115.698 192.4H122.648C123.014 193.667 123.798 194.667 124.998 195.4C126.231 196.167 127.714 196.55 129.448 196.55C131.481 196.55 133.131 195.933 134.398 194.7C135.664 193.5 136.298 191.667 136.298 189.2V184.9C135.398 186.2 134.148 187.283 132.548 188.15C130.981 189.017 129.181 189.45 127.148 189.45C124.814 189.45 122.681 188.85 120.748 187.65C118.814 186.45 117.281 184.767 116.148 182.6C115.048 180.4 114.498 177.883 114.498 175.05C114.498 172.25 115.048 169.767 116.148 167.6C117.281 165.433 118.798 163.767 120.698 162.6C122.631 161.433 124.781 160.85 127.148 160.85ZM136.298 175.15C136.298 173.45 135.964 172 135.298 170.8C134.631 169.567 133.731 168.633 132.598 168C131.464 167.333 130.248 167 128.948 167C127.648 167 126.448 167.317 125.348 167.95C124.248 168.583 123.348 169.517 122.648 170.75C121.981 171.95 121.648 173.383 121.648 175.05C121.648 176.717 121.981 178.183 122.648 179.45C123.348 180.683 124.248 181.633 125.348 182.3C126.481 182.967 127.681 183.3 128.948 183.3C130.248 183.3 131.464 182.983 132.598 182.35C133.731 181.683 134.631 180.75 135.298 179.55C135.964 178.317 136.298 176.85 136.298 175.15ZM176.334 161.3V189H169.284V185.5C168.384 186.7 167.201 187.65 165.734 188.35C164.301 189.017 162.734 189.35 161.034 189.35C158.868 189.35 156.951 188.9 155.284 188C153.618 187.067 152.301 185.717 151.334 183.95C150.401 182.15 149.934 180.017 149.934 177.55V161.3H156.934V176.55C156.934 178.75 157.484 180.45 158.584 181.65C159.684 182.817 161.184 183.4 163.084 183.4C165.018 183.4 166.534 182.817 167.634 181.65C168.734 180.45 169.284 178.75 169.284 176.55V161.3H176.334ZM190.241 152V189H183.241V152H190.241ZM195.357 175.05C195.357 172.25 195.907 169.767 197.007 167.6C198.14 165.433 199.657 163.767 201.557 162.6C203.49 161.433 205.64 160.85 208.007 160.85C210.074 160.85 211.874 161.267 213.407 162.1C214.974 162.933 216.224 163.983 217.157 165.25V161.3H224.207V189H217.157V184.95C216.257 186.25 215.007 187.333 213.407 188.2C211.84 189.033 210.024 189.45 207.957 189.45C205.624 189.45 203.49 188.85 201.557 187.65C199.657 186.45 198.14 184.767 197.007 182.6C195.907 180.4 195.357 177.883 195.357 175.05ZM217.157 175.15C217.157 173.45 216.824 172 216.157 170.8C215.49 169.567 214.59 168.633 213.457 168C212.324 167.333 211.107 167 209.807 167C208.507 167 207.307 167.317 206.207 167.95C205.107 168.583 204.207 169.517 203.507 170.75C202.84 171.95 202.507 173.383 202.507 175.05C202.507 176.717 202.84 178.183 203.507 179.45C204.207 180.683 205.107 181.633 206.207 182.3C207.34 182.967 208.54 183.3 209.807 183.3C211.107 183.3 212.324 182.983 213.457 182.35C214.59 181.683 215.49 180.75 216.157 179.55C216.824 178.317 217.157 176.85 217.157 175.15ZM238.044 165.6C238.944 164.133 240.11 162.983 241.544 162.15C243.01 161.317 244.677 160.9 246.544 160.9V168.25H244.694C242.494 168.25 240.827 168.767 239.694 169.8C238.594 170.833 238.044 172.633 238.044 175.2V189H231.044V161.3H238.044V165.6Z" fill="white"/>
</g>
<defs>
<clipPath id="clip0">
<rect width="450" height="300" fill="white"/>
</clipPath>
</defs>
</svg>
