<svg width="780" height="440" viewBox="0 0 780 440" fill="none" xmlns="http://www.w3.org/2000/svg">
<g clip-path="url(#clip0)">
<rect width="780" height="440" fill="#27213C"/>
<circle cx="390" cy="220" r="157" stroke="white" stroke-opacity="0.05" stroke-width="40"/>
<circle cx="389.5" cy="219.5" r="280.5" stroke="white" stroke-opacity="0.04" stroke-width="80"/>
<circle cx="390" cy="220" r="105" stroke="white" stroke-opacity="0.08" stroke-width="20"/>
<circle cx="390" cy="220" r="25" fill="white" fill-opacity="0.1"/>
<path d="M682.982 326H647.357V336.179H671.786C668.223 351.446 657.027 364.17 642.268 369.259L583.741 310.732C589.848 292.92 607.152 280.196 627 280.196C642.268 280.196 656.009 287.83 664.661 299.536L672.295 292.92C662.116 279.179 645.83 270.018 627 270.018C600.536 270.018 578.143 288.848 572.545 313.786L639.723 380.964C664.152 374.857 682.982 352.464 682.982 326ZM571.018 326.509C571.018 340.759 576.616 354.5 587.304 365.188C597.991 375.875 612.241 381.473 625.982 381.473L571.018 326.509Z" fill="white"/>
<path d="M627 254.75C587.813 254.75 555.75 286.813 555.75 326C555.75 365.188 587.813 397.25 627 397.25C666.188 397.25 698.25 365.188 698.25 326C698.25 286.813 666.188 254.75 627 254.75ZM587.304 365.696C576.616 355.009 571.018 340.759 571.018 327.018L626.491 381.982C612.241 381.473 597.991 376.384 587.304 365.696ZM639.214 380.455L572.545 313.786C578.143 288.848 600.536 270.018 627 270.018C645.83 270.018 662.116 279.179 672.295 292.92L664.661 299.536C656.009 287.83 642.268 280.196 627 280.196C607.152 280.196 590.357 292.92 583.741 310.732L642.268 369.259C657.027 364.17 668.223 351.446 671.786 336.179H647.357V326H682.982C682.982 352.464 664.152 374.857 639.214 380.455Z" fill="#663399"/>
<path d="M115.576 83H537L504.729 142H89L115.576 83Z" fill="white"/>
<path d="M130.16 126.252C128.408 126.252 126.824 125.952 125.408 125.352C124.016 124.752 122.912 123.888 122.096 122.76C121.28 121.632 120.86 120.3 120.836 118.764H126.236C126.308 119.796 126.668 120.612 127.316 121.212C127.988 121.812 128.9 122.112 130.052 122.112C131.228 122.112 132.152 121.836 132.824 121.284C133.496 120.708 133.832 119.964 133.832 119.052C133.832 118.308 133.604 117.696 133.148 117.216C132.692 116.736 132.116 116.364 131.42 116.1C130.748 115.812 129.812 115.5 128.612 115.164C126.98 114.684 125.648 114.216 124.616 113.76C123.608 113.28 122.732 112.572 121.988 111.636C121.268 110.676 120.908 109.404 120.908 107.82C120.908 106.332 121.28 105.036 122.024 103.932C122.768 102.828 123.812 101.988 125.156 101.412C126.5 100.812 128.036 100.512 129.764 100.512C132.356 100.512 134.456 101.148 136.064 102.42C137.696 103.668 138.596 105.42 138.764 107.676H133.22C133.172 106.812 132.8 106.104 132.104 105.552C131.432 104.976 130.532 104.688 129.404 104.688C128.42 104.688 127.628 104.94 127.028 105.444C126.452 105.948 126.164 106.68 126.164 107.64C126.164 108.312 126.38 108.876 126.812 109.332C127.268 109.764 127.82 110.124 128.468 110.412C129.14 110.676 130.076 110.988 131.276 111.348C132.908 111.828 134.24 112.308 135.272 112.788C136.304 113.268 137.192 113.988 137.936 114.948C138.68 115.908 139.052 117.168 139.052 118.728C139.052 120.072 138.704 121.32 138.008 122.472C137.312 123.624 136.292 124.548 134.948 125.244C133.604 125.916 132.008 126.252 130.16 126.252ZM160.522 100.872V104.94H153.826V126H148.786V104.94H142.09V100.872H160.522ZM184.179 100.872L175.683 117.252V126H170.643V117.252L162.111 100.872H167.799L173.199 112.356L178.563 100.872H184.179ZM192.126 122.004H200.406V126H187.086V100.872H192.126V122.004ZM208.649 104.94V111.24H217.109V115.236H208.649V121.896H218.189V126H203.609V100.836H218.189V104.94H208.649ZM231.553 100.872C234.193 100.872 236.509 101.388 238.501 102.42C240.517 103.452 242.065 104.928 243.145 106.848C244.249 108.744 244.801 110.952 244.801 113.472C244.801 115.992 244.249 118.2 243.145 120.096C242.065 121.968 240.517 123.42 238.501 124.452C236.509 125.484 234.193 126 231.553 126H222.769V100.872H231.553ZM231.373 121.716C234.013 121.716 236.053 120.996 237.493 119.556C238.933 118.116 239.653 116.088 239.653 113.472C239.653 110.856 238.933 108.816 237.493 107.352C236.053 105.864 234.013 105.12 231.373 105.12H227.809V121.716H231.373ZM255.928 113.4C255.928 110.928 256.48 108.72 257.584 106.776C258.712 104.808 260.236 103.284 262.156 102.204C264.1 101.1 266.272 100.548 268.672 100.548C271.48 100.548 273.94 101.268 276.052 102.708C278.164 104.148 279.64 106.14 280.48 108.684H274.684C274.108 107.484 273.292 106.584 272.236 105.984C271.204 105.384 270.004 105.084 268.636 105.084C267.172 105.084 265.864 105.432 264.712 106.128C263.584 106.8 262.696 107.76 262.048 109.008C261.424 110.256 261.112 111.72 261.112 113.4C261.112 115.056 261.424 116.52 262.048 117.792C262.696 119.04 263.584 120.012 264.712 120.708C265.864 121.38 267.172 121.716 268.636 121.716C270.004 121.716 271.204 121.416 272.236 120.816C273.292 120.192 274.108 119.28 274.684 118.08H280.48C279.64 120.648 278.164 122.652 276.052 124.092C273.964 125.508 271.504 126.216 268.672 126.216C266.272 126.216 264.1 125.676 262.156 124.596C260.236 123.492 258.712 121.968 257.584 120.024C256.48 118.08 255.928 115.872 255.928 113.4ZM296.449 126.252C294.097 126.252 291.937 125.7 289.969 124.596C288.001 123.492 286.441 121.968 285.289 120.024C284.137 118.056 283.561 115.836 283.561 113.364C283.561 110.916 284.137 108.72 285.289 106.776C286.441 104.808 288.001 103.272 289.969 102.168C291.937 101.064 294.097 100.512 296.449 100.512C298.825 100.512 300.985 101.064 302.929 102.168C304.897 103.272 306.445 104.808 307.573 106.776C308.725 108.72 309.301 110.916 309.301 113.364C309.301 115.836 308.725 118.056 307.573 120.024C306.445 121.968 304.897 123.492 302.929 124.596C300.961 125.7 298.801 126.252 296.449 126.252ZM296.449 121.752C297.961 121.752 299.293 121.416 300.445 120.744C301.597 120.048 302.497 119.064 303.145 117.792C303.793 116.52 304.117 115.044 304.117 113.364C304.117 111.684 303.793 110.22 303.145 108.972C302.497 107.7 301.597 106.728 300.445 106.056C299.293 105.384 297.961 105.048 296.449 105.048C294.937 105.048 293.593 105.384 292.417 106.056C291.265 106.728 290.365 107.7 289.717 108.972C289.069 110.22 288.745 111.684 288.745 113.364C288.745 115.044 289.069 116.52 289.717 117.792C290.365 119.064 291.265 120.048 292.417 120.744C293.593 121.416 294.937 121.752 296.449 121.752ZM340.446 100.872V126H335.406V109.656L328.674 126H324.858L318.09 109.656V126H313.05V100.872H318.774L326.766 119.556L334.758 100.872H340.446ZM363.753 108.648C363.753 109.992 363.429 111.252 362.781 112.428C362.157 113.604 361.161 114.552 359.793 115.272C358.449 115.992 356.745 116.352 354.681 116.352H350.469V126H345.429V100.872H354.681C356.625 100.872 358.281 101.208 359.649 101.88C361.017 102.552 362.037 103.476 362.709 104.652C363.405 105.828 363.753 107.16 363.753 108.648ZM354.465 112.284C355.857 112.284 356.889 111.972 357.561 111.348C358.233 110.7 358.569 109.8 358.569 108.648C358.569 106.2 357.201 104.976 354.465 104.976H350.469V112.284H354.465ZM378.996 126.252C376.644 126.252 374.484 125.7 372.516 124.596C370.548 123.492 368.988 121.968 367.836 120.024C366.684 118.056 366.108 115.836 366.108 113.364C366.108 110.916 366.684 108.72 367.836 106.776C368.988 104.808 370.548 103.272 372.516 102.168C374.484 101.064 376.644 100.512 378.996 100.512C381.372 100.512 383.532 101.064 385.476 102.168C387.444 103.272 388.992 104.808 390.12 106.776C391.272 108.72 391.848 110.916 391.848 113.364C391.848 115.836 391.272 118.056 390.12 120.024C388.992 121.968 387.444 123.492 385.476 124.596C383.508 125.7 381.348 126.252 378.996 126.252ZM378.996 121.752C380.508 121.752 381.84 121.416 382.992 120.744C384.144 120.048 385.044 119.064 385.692 117.792C386.34 116.52 386.664 115.044 386.664 113.364C386.664 111.684 386.34 110.22 385.692 108.972C385.044 107.7 384.144 106.728 382.992 106.056C381.84 105.384 380.508 105.048 378.996 105.048C377.484 105.048 376.14 105.384 374.964 106.056C373.812 106.728 372.912 107.7 372.264 108.972C371.616 110.22 371.292 111.684 371.292 113.364C371.292 115.044 371.616 116.52 372.264 117.792C372.912 119.064 373.812 120.048 374.964 120.744C376.14 121.416 377.484 121.752 378.996 121.752ZM417.089 126H412.049L400.637 108.756V126H395.597V100.836H400.637L412.049 118.116V100.836H417.089V126ZM427.11 104.94V111.24H435.57V115.236H427.11V121.896H436.65V126H422.07V100.836H436.65V104.94H427.11ZM462.722 126H457.682L446.27 108.756V126H441.23V100.836H446.27L457.682 118.116V100.836H462.722V126ZM484.803 100.872V104.94H478.107V126H473.067V104.94H466.371V100.872H484.803ZM497.156 126.252C495.404 126.252 493.82 125.952 492.404 125.352C491.012 124.752 489.908 123.888 489.092 122.76C488.276 121.632 487.856 120.3 487.832 118.764H493.232C493.304 119.796 493.664 120.612 494.312 121.212C494.984 121.812 495.896 122.112 497.048 122.112C498.224 122.112 499.148 121.836 499.82 121.284C500.492 120.708 500.828 119.964 500.828 119.052C500.828 118.308 500.6 117.696 500.144 117.216C499.688 116.736 499.112 116.364 498.416 116.1C497.744 115.812 496.808 115.5 495.608 115.164C493.976 114.684 492.644 114.216 491.612 113.76C490.604 113.28 489.728 112.572 488.984 111.636C488.264 110.676 487.904 109.404 487.904 107.82C487.904 106.332 488.276 105.036 489.02 103.932C489.764 102.828 490.808 101.988 492.152 101.412C493.496 100.812 495.032 100.512 496.76 100.512C499.352 100.512 501.452 101.148 503.06 102.42C504.692 103.668 505.592 105.42 505.76 107.676H500.216C500.168 106.812 499.796 106.104 499.1 105.552C498.428 104.976 497.528 104.688 496.4 104.688C495.416 104.688 494.624 104.94 494.024 105.444C493.448 105.948 493.16 106.68 493.16 107.64C493.16 108.312 493.376 108.876 493.808 109.332C494.264 109.764 494.816 110.124 495.464 110.412C496.136 110.676 497.072 110.988 498.272 111.348C499.904 111.828 501.236 112.308 502.268 112.788C503.3 113.268 504.188 113.988 504.932 114.948C505.676 115.908 506.048 117.168 506.048 118.728C506.048 120.072 505.7 121.32 505.004 122.472C504.308 123.624 503.288 124.548 501.944 125.244C500.6 125.916 499.004 126.252 497.156 126.252Z" fill="black"/>
<path d="M265.778 208.684V238H259.898V208.684H265.778ZM296.661 238H290.781L277.467 217.882V238H271.587V208.642H277.467L290.781 228.802V208.642H296.661V238Z" fill="#F9AC00"/>
<path d="M113.678 296H505L475.034 355H89L113.678 296Z" fill="white"/>
<path d="M129.98 321.432C129.404 320.376 128.612 319.572 127.604 319.02C126.596 318.468 125.42 318.192 124.076 318.192C122.588 318.192 121.268 318.528 120.116 319.2C118.964 319.872 118.064 320.832 117.416 322.08C116.768 323.328 116.444 324.768 116.444 326.4C116.444 328.08 116.768 329.544 117.416 330.792C118.088 332.04 119.012 333 120.188 333.672C121.364 334.344 122.732 334.68 124.292 334.68C126.212 334.68 127.784 334.176 129.008 333.168C130.232 332.136 131.036 330.708 131.42 328.884H122.78V325.032H136.388V329.424C136.052 331.176 135.332 332.796 134.228 334.284C133.124 335.772 131.696 336.972 129.944 337.884C128.216 338.772 126.272 339.216 124.112 339.216C121.688 339.216 119.492 338.676 117.524 337.596C115.58 336.492 114.044 334.968 112.916 333.024C111.812 331.08 111.26 328.872 111.26 326.4C111.26 323.928 111.812 321.72 112.916 319.776C114.044 317.808 115.58 316.284 117.524 315.204C119.492 314.1 121.676 313.548 124.076 313.548C126.908 313.548 129.368 314.244 131.456 315.636C133.544 317.004 134.984 318.936 135.776 321.432H129.98ZM155.525 334.212H145.517L143.861 339H138.569L147.605 313.836H153.473L162.509 339H157.181L155.525 334.212ZM154.157 330.18L150.521 319.668L146.885 330.18H154.157ZM182.986 313.872V317.94H176.29V339H171.25V317.94H164.554V313.872H182.986ZM195.34 339.252C193.588 339.252 192.004 338.952 190.588 338.352C189.196 337.752 188.092 336.888 187.276 335.76C186.46 334.632 186.04 333.3 186.016 331.764H191.416C191.488 332.796 191.848 333.612 192.496 334.212C193.168 334.812 194.08 335.112 195.232 335.112C196.408 335.112 197.332 334.836 198.004 334.284C198.676 333.708 199.012 332.964 199.012 332.052C199.012 331.308 198.784 330.696 198.328 330.216C197.872 329.736 197.296 329.364 196.6 329.1C195.928 328.812 194.992 328.5 193.792 328.164C192.16 327.684 190.828 327.216 189.796 326.76C188.788 326.28 187.912 325.572 187.168 324.636C186.448 323.676 186.088 322.404 186.088 320.82C186.088 319.332 186.46 318.036 187.204 316.932C187.948 315.828 188.992 314.988 190.336 314.412C191.68 313.812 193.216 313.512 194.944 313.512C197.536 313.512 199.636 314.148 201.244 315.42C202.876 316.668 203.776 318.42 203.944 320.676H198.4C198.352 319.812 197.98 319.104 197.284 318.552C196.612 317.976 195.712 317.688 194.584 317.688C193.6 317.688 192.808 317.94 192.208 318.444C191.632 318.948 191.344 319.68 191.344 320.64C191.344 321.312 191.56 321.876 191.992 322.332C192.448 322.764 193 323.124 193.648 323.412C194.32 323.676 195.256 323.988 196.456 324.348C198.088 324.828 199.42 325.308 200.452 325.788C201.484 326.268 202.372 326.988 203.116 327.948C203.86 328.908 204.232 330.168 204.232 331.728C204.232 333.072 203.884 334.32 203.188 335.472C202.492 336.624 201.472 337.548 200.128 338.244C198.784 338.916 197.188 339.252 195.34 339.252ZM222.857 326.112C224.273 326.376 225.437 327.084 226.349 328.236C227.261 329.388 227.717 330.708 227.717 332.196C227.717 333.54 227.381 334.728 226.709 335.76C226.061 336.768 225.113 337.56 223.865 338.136C222.617 338.712 221.141 339 219.437 339H208.601V313.872H218.969C220.673 313.872 222.137 314.148 223.361 314.7C224.609 315.252 225.545 316.02 226.169 317.004C226.817 317.988 227.141 319.104 227.141 320.352C227.141 321.816 226.745 323.04 225.953 324.024C225.185 325.008 224.153 325.704 222.857 326.112ZM213.641 324.24H218.249C219.449 324.24 220.373 323.976 221.021 323.448C221.669 322.896 221.993 322.116 221.993 321.108C221.993 320.1 221.669 319.32 221.021 318.768C220.373 318.216 219.449 317.94 218.249 317.94H213.641V324.24ZM218.717 334.896C219.941 334.896 220.889 334.608 221.561 334.032C222.257 333.456 222.605 332.64 222.605 331.584C222.605 330.504 222.245 329.664 221.525 329.064C220.805 328.44 219.833 328.128 218.609 328.128H213.641V334.896H218.717ZM251.714 313.872L243.218 330.252V339H238.178V330.252L229.646 313.872H235.334L240.734 325.356L246.098 313.872H251.714ZM290.595 313.872V339H285.555V322.656L278.823 339H275.007L268.239 322.656V339H263.199V313.872H268.923L276.915 332.556L284.907 313.872H290.595ZM310.986 334.212H300.978L299.322 339H294.03L303.066 313.836H308.934L317.97 339H312.642L310.986 334.212ZM309.618 330.18L305.982 319.668L302.346 330.18H309.618ZM334.307 339L328.763 329.208H326.387V339H321.347V313.872H330.779C332.723 313.872 334.379 314.22 335.747 314.916C337.115 315.588 338.135 316.512 338.807 317.688C339.503 318.84 339.851 320.136 339.851 321.576C339.851 323.232 339.371 324.732 338.411 326.076C337.451 327.396 336.023 328.308 334.127 328.812L340.139 339H334.307ZM326.387 325.428H330.599C331.967 325.428 332.987 325.104 333.659 324.456C334.331 323.784 334.667 322.86 334.667 321.684C334.667 320.532 334.331 319.644 333.659 319.02C332.987 318.372 331.967 318.048 330.599 318.048H326.387V325.428ZM358.594 339L349.45 327.804V339H344.41V313.872H349.45V325.14L358.594 313.872H364.678L354.31 326.328L364.966 339H358.594ZM377.065 313.872C379.705 313.872 382.021 314.388 384.013 315.42C386.029 316.452 387.577 317.928 388.657 319.848C389.761 321.744 390.313 323.952 390.313 326.472C390.313 328.992 389.761 331.2 388.657 333.096C387.577 334.968 386.029 336.42 384.013 337.452C382.021 338.484 379.705 339 377.065 339H368.281V313.872H377.065ZM376.885 334.716C379.525 334.716 381.565 333.996 383.005 332.556C384.445 331.116 385.165 329.088 385.165 326.472C385.165 323.856 384.445 321.816 383.005 320.352C381.565 318.864 379.525 318.12 376.885 318.12H373.321V334.716H376.885ZM405.75 339.252C403.398 339.252 401.238 338.7 399.27 337.596C397.302 336.492 395.742 334.968 394.59 333.024C393.438 331.056 392.862 328.836 392.862 326.364C392.862 323.916 393.438 321.72 394.59 319.776C395.742 317.808 397.302 316.272 399.27 315.168C401.238 314.064 403.398 313.512 405.75 313.512C408.126 313.512 410.286 314.064 412.23 315.168C414.198 316.272 415.746 317.808 416.874 319.776C418.026 321.72 418.602 323.916 418.602 326.364C418.602 328.836 418.026 331.056 416.874 333.024C415.746 334.968 414.198 336.492 412.23 337.596C410.262 338.7 408.102 339.252 405.75 339.252ZM405.75 334.752C407.262 334.752 408.594 334.416 409.746 333.744C410.898 333.048 411.798 332.064 412.446 330.792C413.094 329.52 413.418 328.044 413.418 326.364C413.418 324.684 413.094 323.22 412.446 321.972C411.798 320.7 410.898 319.728 409.746 319.056C408.594 318.384 407.262 318.048 405.75 318.048C404.238 318.048 402.894 318.384 401.718 319.056C400.566 319.728 399.666 320.7 399.018 321.972C398.37 323.22 398.046 324.684 398.046 326.364C398.046 328.044 398.37 329.52 399.018 330.792C399.666 332.064 400.566 333.048 401.718 333.744C402.894 334.416 404.238 334.752 405.75 334.752ZM455.939 313.872L448.919 339H442.979L438.263 321.108L433.331 339L427.427 339.036L420.659 313.872H426.059L430.487 333.384L435.599 313.872H441.215L446.039 333.276L450.503 313.872H455.939ZM480.722 339H475.682L464.27 321.756V339H459.23V313.836H464.27L475.682 331.116V313.836H480.722V339Z" fill="black"/>
</g>
<defs>
<clipPath id="clip0">
<rect width="780" height="440" fill="white"/>
</clipPath>
</defs>
</svg>
