<svg width="780" height="440" viewBox="0 0 780 440" fill="none" xmlns="http://www.w3.org/2000/svg">
<g clip-path="url(#clip0)">
<rect width="780" height="440" fill="#27213C"/>
<circle cx="390" cy="220" r="157" stroke="white" stroke-opacity="0.05" stroke-width="40"/>
<circle cx="389.5" cy="219.5" r="280.5" stroke="white" stroke-opacity="0.04" stroke-width="80"/>
<circle cx="390" cy="220" r="105" stroke="white" stroke-opacity="0.08" stroke-width="20"/>
<circle cx="390" cy="220" r="25" fill="white" fill-opacity="0.1"/>
<path d="M682.982 326H647.357V336.179H671.786C668.223 351.446 657.027 364.17 642.268 369.259L583.741 310.732C589.848 292.92 607.152 280.196 627 280.196C642.268 280.196 656.009 287.83 664.661 299.536L672.295 292.92C662.116 279.179 645.83 270.018 627 270.018C600.536 270.018 578.143 288.848 572.545 313.786L639.723 380.964C664.152 374.857 682.982 352.464 682.982 326ZM571.018 326.509C571.018 340.759 576.616 354.5 587.304 365.187C597.991 375.875 612.241 381.473 625.982 381.473L571.018 326.509Z" fill="white"/>
<path d="M627 254.75C587.813 254.75 555.75 286.813 555.75 326C555.75 365.188 587.813 397.25 627 397.25C666.188 397.25 698.25 365.188 698.25 326C698.25 286.813 666.188 254.75 627 254.75ZM587.304 365.696C576.616 355.009 571.018 340.759 571.018 327.018L626.491 381.982C612.241 381.473 597.991 376.384 587.304 365.696ZM639.214 380.455L572.545 313.786C578.143 288.848 600.536 270.018 627 270.018C645.83 270.018 662.116 279.179 672.295 292.92L664.661 299.536C656.009 287.83 642.268 280.196 627 280.196C607.152 280.196 590.357 292.92 583.741 310.732L642.268 369.259C657.027 364.17 668.223 351.446 671.786 336.179H647.357V326H682.982C682.982 352.464 664.152 374.857 639.214 380.455Z" fill="#663399"/>
<rect x="137" y="92" width="388" height="74" fill="white"/>
<rect x="181" y="289" width="262" height="74" fill="white"/>
<path d="M187.98 124.432C187.404 123.376 186.612 122.572 185.604 122.02C184.596 121.468 183.42 121.192 182.076 121.192C180.588 121.192 179.268 121.528 178.116 122.2C176.964 122.872 176.064 123.832 175.416 125.08C174.768 126.328 174.444 127.768 174.444 129.4C174.444 131.08 174.768 132.544 175.416 133.792C176.088 135.04 177.012 136 178.188 136.672C179.364 137.344 180.732 137.68 182.292 137.68C184.212 137.68 185.784 137.176 187.008 136.168C188.232 135.136 189.036 133.708 189.42 131.884H180.78V128.032H194.388V132.424C194.052 134.176 193.332 135.796 192.228 137.284C191.124 138.772 189.696 139.972 187.944 140.884C186.216 141.772 184.272 142.216 182.112 142.216C179.688 142.216 177.492 141.676 175.524 140.596C173.58 139.492 172.044 137.968 170.916 136.024C169.812 134.08 169.26 131.872 169.26 129.4C169.26 126.928 169.812 124.72 170.916 122.776C172.044 120.808 173.58 119.284 175.524 118.204C177.492 117.1 179.676 116.548 182.076 116.548C184.908 116.548 187.368 117.244 189.456 118.636C191.544 120.004 192.984 121.936 193.776 124.432H187.98ZM203.157 120.94V127.24H211.617V131.236H203.157V137.896H212.697V142H198.117V116.836H212.697V120.94H203.157ZM234.377 116.872V120.94H227.681V142H222.641V120.94H215.945V116.872H234.377ZM255.154 116.872V120.94H248.458V142H243.418V120.94H236.722V116.872H255.154ZM263.872 116.872V142H258.832V116.872H263.872ZM290.343 142H285.303L273.891 124.756V142H268.851V116.836H273.891L285.303 134.116V116.836H290.343V142ZM312.82 124.432C312.244 123.376 311.452 122.572 310.444 122.02C309.436 121.468 308.26 121.192 306.916 121.192C305.428 121.192 304.108 121.528 302.956 122.2C301.804 122.872 300.904 123.832 300.256 125.08C299.608 126.328 299.284 127.768 299.284 129.4C299.284 131.08 299.608 132.544 300.256 133.792C300.928 135.04 301.852 136 303.028 136.672C304.204 137.344 305.572 137.68 307.132 137.68C309.052 137.68 310.624 137.176 311.848 136.168C313.072 135.136 313.876 133.708 314.26 131.884H305.62V128.032H319.228V132.424C318.892 134.176 318.172 135.796 317.068 137.284C315.964 138.772 314.536 139.972 312.784 140.884C311.056 141.772 309.112 142.216 306.952 142.216C304.528 142.216 302.332 141.676 300.364 140.596C298.42 139.492 296.884 137.968 295.756 136.024C294.652 134.08 294.1 131.872 294.1 129.4C294.1 126.928 294.652 124.72 295.756 122.776C296.884 120.808 298.42 119.284 300.364 118.204C302.332 117.1 304.516 116.548 306.916 116.548C309.748 116.548 312.208 117.244 314.296 118.636C316.384 120.004 317.824 121.936 318.616 124.432H312.82ZM348.789 142.252C347.037 142.252 345.453 141.952 344.037 141.352C342.645 140.752 341.541 139.888 340.725 138.76C339.909 137.632 339.489 136.3 339.465 134.764H344.865C344.937 135.796 345.297 136.612 345.945 137.212C346.617 137.812 347.529 138.112 348.681 138.112C349.857 138.112 350.781 137.836 351.453 137.284C352.125 136.708 352.461 135.964 352.461 135.052C352.461 134.308 352.233 133.696 351.777 133.216C351.321 132.736 350.745 132.364 350.049 132.1C349.377 131.812 348.441 131.5 347.241 131.164C345.609 130.684 344.277 130.216 343.245 129.76C342.237 129.28 341.361 128.572 340.617 127.636C339.897 126.676 339.537 125.404 339.537 123.82C339.537 122.332 339.909 121.036 340.653 119.932C341.397 118.828 342.441 117.988 343.785 117.412C345.129 116.812 346.665 116.512 348.393 116.512C350.985 116.512 353.085 117.148 354.693 118.42C356.325 119.668 357.225 121.42 357.393 123.676H351.849C351.801 122.812 351.429 122.104 350.733 121.552C350.061 120.976 349.161 120.688 348.033 120.688C347.049 120.688 346.257 120.94 345.657 121.444C345.081 121.948 344.793 122.68 344.793 123.64C344.793 124.312 345.009 124.876 345.441 125.332C345.897 125.764 346.449 126.124 347.097 126.412C347.769 126.676 348.705 126.988 349.905 127.348C351.537 127.828 352.869 128.308 353.901 128.788C354.933 129.268 355.821 129.988 356.565 130.948C357.309 131.908 357.681 133.168 357.681 134.728C357.681 136.072 357.333 137.32 356.637 138.472C355.941 139.624 354.921 140.548 353.577 141.244C352.233 141.916 350.637 142.252 348.789 142.252ZM379.15 116.872V120.94H372.454V142H367.414V120.94H360.718V116.872H379.15ZM398.236 137.212H388.228L386.572 142H381.28L390.316 116.836H396.184L405.22 142H399.892L398.236 137.212ZM396.868 133.18L393.232 122.668L389.596 133.18H396.868ZM421.557 142L416.013 132.208H413.637V142H408.597V116.872H418.029C419.973 116.872 421.629 117.22 422.997 117.916C424.365 118.588 425.385 119.512 426.057 120.688C426.753 121.84 427.101 123.136 427.101 124.576C427.101 126.232 426.621 127.732 425.661 129.076C424.701 130.396 423.273 131.308 421.377 131.812L427.389 142H421.557ZM413.637 128.428H417.849C419.217 128.428 420.237 128.104 420.909 127.456C421.581 126.784 421.917 125.86 421.917 124.684C421.917 123.532 421.581 122.644 420.909 122.02C420.237 121.372 419.217 121.048 417.849 121.048H413.637V128.428ZM448.76 116.872V120.94H442.064V142H437.024V120.94H430.328V116.872H448.76ZM457.477 120.94V127.24H465.937V131.236H457.477V137.896H467.017V142H452.437V116.836H467.017V120.94H457.477ZM480.381 116.872C483.021 116.872 485.337 117.388 487.329 118.42C489.345 119.452 490.893 120.928 491.973 122.848C493.077 124.744 493.629 126.952 493.629 129.472C493.629 131.992 493.077 134.2 491.973 136.096C490.893 137.968 489.345 139.42 487.329 140.452C485.337 141.484 483.021 142 480.381 142H471.597V116.872H480.381ZM480.201 137.716C482.841 137.716 484.881 136.996 486.321 135.556C487.761 134.116 488.481 132.088 488.481 129.472C488.481 126.856 487.761 124.816 486.321 123.352C484.881 121.864 482.841 121.12 480.201 121.12H476.637V137.716H480.201Z" fill="black"/>
<path d="M299.084 208.684L290.894 238H283.964L278.462 217.126L272.708 238L265.82 238.042L257.924 208.684H264.224L269.39 231.448L275.354 208.684H281.906L287.534 231.322L292.742 208.684H299.084ZM308.803 208.684V238H302.923V208.684H308.803ZM334.563 208.684V213.43H326.751V238H320.871V213.43H313.059V208.684H334.563ZM363.171 208.684V238H357.291V225.526H344.733V238H338.853V208.684H344.733V220.738H357.291V208.684H363.171Z" fill="#F9AC00"/>
<path d="M234.98 321.432C234.404 320.376 233.612 319.572 232.604 319.02C231.596 318.468 230.42 318.192 229.076 318.192C227.588 318.192 226.268 318.528 225.116 319.2C223.964 319.872 223.064 320.832 222.416 322.08C221.768 323.328 221.444 324.768 221.444 326.4C221.444 328.08 221.768 329.544 222.416 330.792C223.088 332.04 224.012 333 225.188 333.672C226.364 334.344 227.732 334.68 229.292 334.68C231.212 334.68 232.784 334.176 234.008 333.168C235.232 332.136 236.036 330.708 236.42 328.884H227.78V325.032H241.388V329.424C241.052 331.176 240.332 332.796 239.228 334.284C238.124 335.772 236.696 336.972 234.944 337.884C233.216 338.772 231.272 339.216 229.112 339.216C226.688 339.216 224.492 338.676 222.524 337.596C220.58 336.492 219.044 334.968 217.916 333.024C216.812 331.08 216.26 328.872 216.26 326.4C216.26 323.928 216.812 321.72 217.916 319.776C219.044 317.808 220.58 316.284 222.524 315.204C224.492 314.1 226.676 313.548 229.076 313.548C231.908 313.548 234.368 314.244 236.456 315.636C238.544 317.004 239.984 318.936 240.776 321.432H234.98ZM260.525 334.212H250.517L248.861 339H243.569L252.605 313.836H258.473L267.509 339H262.181L260.525 334.212ZM259.157 330.18L255.521 319.668L251.885 330.18H259.157ZM287.986 313.872V317.94H281.29V339H276.25V317.94H269.554V313.872H287.986ZM300.34 339.252C298.588 339.252 297.004 338.952 295.588 338.352C294.196 337.752 293.092 336.888 292.276 335.76C291.46 334.632 291.04 333.3 291.016 331.764H296.416C296.488 332.796 296.848 333.612 297.496 334.212C298.168 334.812 299.08 335.112 300.232 335.112C301.408 335.112 302.332 334.836 303.004 334.284C303.676 333.708 304.012 332.964 304.012 332.052C304.012 331.308 303.784 330.696 303.328 330.216C302.872 329.736 302.296 329.364 301.6 329.1C300.928 328.812 299.992 328.5 298.792 328.164C297.16 327.684 295.828 327.216 294.796 326.76C293.788 326.28 292.912 325.572 292.168 324.636C291.448 323.676 291.088 322.404 291.088 320.82C291.088 319.332 291.46 318.036 292.204 316.932C292.948 315.828 293.992 314.988 295.336 314.412C296.68 313.812 298.216 313.512 299.944 313.512C302.536 313.512 304.636 314.148 306.244 315.42C307.876 316.668 308.776 318.42 308.944 320.676H303.4C303.352 319.812 302.98 319.104 302.284 318.552C301.612 317.976 300.712 317.688 299.584 317.688C298.6 317.688 297.808 317.94 297.208 318.444C296.632 318.948 296.344 319.68 296.344 320.64C296.344 321.312 296.56 321.876 296.992 322.332C297.448 322.764 298 323.124 298.648 323.412C299.32 323.676 300.256 323.988 301.456 324.348C303.088 324.828 304.42 325.308 305.452 325.788C306.484 326.268 307.372 326.988 308.116 327.948C308.86 328.908 309.232 330.168 309.232 331.728C309.232 333.072 308.884 334.32 308.188 335.472C307.492 336.624 306.472 337.548 305.128 338.244C303.784 338.916 302.188 339.252 300.34 339.252ZM327.857 326.112C329.273 326.376 330.437 327.084 331.349 328.236C332.261 329.388 332.717 330.708 332.717 332.196C332.717 333.54 332.381 334.728 331.709 335.76C331.061 336.768 330.113 337.56 328.865 338.136C327.617 338.712 326.141 339 324.437 339H313.601V313.872H323.969C325.673 313.872 327.137 314.148 328.361 314.7C329.609 315.252 330.545 316.02 331.169 317.004C331.817 317.988 332.141 319.104 332.141 320.352C332.141 321.816 331.745 323.04 330.953 324.024C330.185 325.008 329.153 325.704 327.857 326.112ZM318.641 324.24H323.249C324.449 324.24 325.373 323.976 326.021 323.448C326.669 322.896 326.993 322.116 326.993 321.108C326.993 320.1 326.669 319.32 326.021 318.768C325.373 318.216 324.449 317.94 323.249 317.94H318.641V324.24ZM323.717 334.896C324.941 334.896 325.889 334.608 326.561 334.032C327.257 333.456 327.605 332.64 327.605 331.584C327.605 330.504 327.245 329.664 326.525 329.064C325.805 328.44 324.833 328.128 323.609 328.128H318.641V334.896H323.717ZM356.714 313.872L348.218 330.252V339H343.178V330.252L334.646 313.872H340.334L345.734 325.356L351.098 313.872H356.714ZM382.851 313.872V331.512C382.851 333.96 382.143 335.868 380.727 337.236C379.311 338.58 377.415 339.252 375.039 339.252C372.639 339.252 370.695 338.556 369.207 337.164C367.743 335.772 367.011 333.828 367.011 331.332H372.051C372.075 332.412 372.327 333.252 372.807 333.852C373.311 334.452 374.031 334.752 374.967 334.752C375.879 334.752 376.575 334.464 377.055 333.888C377.535 333.312 377.775 332.52 377.775 331.512V313.872H382.851ZM397.406 339.252C395.654 339.252 394.07 338.952 392.654 338.352C391.262 337.752 390.158 336.888 389.342 335.76C388.526 334.632 388.106 333.3 388.082 331.764H393.482C393.554 332.796 393.914 333.612 394.562 334.212C395.234 334.812 396.146 335.112 397.298 335.112C398.474 335.112 399.398 334.836 400.07 334.284C400.742 333.708 401.078 332.964 401.078 332.052C401.078 331.308 400.85 330.696 400.394 330.216C399.938 329.736 399.362 329.364 398.666 329.1C397.994 328.812 397.058 328.5 395.858 328.164C394.226 327.684 392.894 327.216 391.862 326.76C390.854 326.28 389.978 325.572 389.234 324.636C388.514 323.676 388.154 322.404 388.154 320.82C388.154 319.332 388.526 318.036 389.27 316.932C390.014 315.828 391.058 314.988 392.402 314.412C393.746 313.812 395.282 313.512 397.01 313.512C399.602 313.512 401.702 314.148 403.31 315.42C404.942 316.668 405.842 318.42 406.01 320.676H400.466C400.418 319.812 400.046 319.104 399.35 318.552C398.678 317.976 397.778 317.688 396.65 317.688C395.666 317.688 394.874 317.94 394.274 318.444C393.698 318.948 393.41 319.68 393.41 320.64C393.41 321.312 393.626 321.876 394.058 322.332C394.514 322.764 395.066 323.124 395.714 323.412C396.386 323.676 397.322 323.988 398.522 324.348C400.154 324.828 401.486 325.308 402.518 325.788C403.55 326.268 404.438 326.988 405.182 327.948C405.926 328.908 406.298 330.168 406.298 331.728C406.298 333.072 405.95 334.32 405.254 335.472C404.558 336.624 403.538 337.548 402.194 338.244C400.85 338.916 399.254 339.252 397.406 339.252Z" fill="black"/>
</g>
<defs>
<clipPath id="clip0">
<rect width="780" height="440" fill="white"/>
</clipPath>
</defs>
</svg>
