<svg width="780" height="440" viewBox="0 0 780 440" fill="none" xmlns="http://www.w3.org/2000/svg">
<g clip-path="url(#clip0)">
<rect width="780" height="440" fill="#27213C"/>
<circle cx="390" cy="220" r="157" stroke="white" stroke-opacity="0.05" stroke-width="40"/>
<circle cx="389.5" cy="219.5" r="280.5" stroke="white" stroke-opacity="0.04" stroke-width="80"/>
<circle cx="390" cy="220" r="105" stroke="white" stroke-opacity="0.08" stroke-width="20"/>
<circle cx="390" cy="220" r="25" fill="white" fill-opacity="0.1"/>
<path d="M682.982 326H647.357V336.179H671.786C668.223 351.446 657.027 364.17 642.268 369.259L583.741 310.732C589.848 292.92 607.152 280.196 627 280.196C642.268 280.196 656.009 287.83 664.661 299.536L672.295 292.92C662.116 279.179 645.83 270.018 627 270.018C600.536 270.018 578.143 288.848 572.545 313.786L639.723 380.964C664.152 374.857 682.982 352.464 682.982 326ZM571.018 326.509C571.018 340.759 576.616 354.5 587.304 365.188C597.991 375.875 612.241 381.473 625.982 381.473L571.018 326.509Z" fill="white"/>
<path d="M627 254.75C587.813 254.75 555.75 286.813 555.75 326C555.75 365.188 587.813 397.25 627 397.25C666.188 397.25 698.25 365.188 698.25 326C698.25 286.813 666.188 254.75 627 254.75ZM587.304 365.696C576.616 355.009 571.018 340.759 571.018 327.018L626.491 381.982C612.241 381.473 597.991 376.384 587.304 365.696ZM639.214 380.455L572.545 313.786C578.143 288.848 600.536 270.018 627 270.018C645.83 270.018 662.116 279.179 672.295 292.92L664.661 299.536C656.009 287.83 642.268 280.196 627 280.196C607.152 280.196 590.357 292.92 583.741 310.732L642.268 369.259C657.027 364.17 668.223 351.446 671.786 336.179H647.357V326H682.982C682.982 352.464 664.152 374.857 639.214 380.455Z" fill="#663399"/>
<rect x="100" y="86" width="428" height="74" fill="white"/>
<rect x="100" y="287" width="414" height="74" fill="white"/>
<path d="M131.16 136.252C129.408 136.252 127.824 135.952 126.408 135.352C125.016 134.752 123.912 133.888 123.096 132.76C122.28 131.632 121.86 130.3 121.836 128.764H127.236C127.308 129.796 127.668 130.612 128.316 131.212C128.988 131.812 129.9 132.112 131.052 132.112C132.228 132.112 133.152 131.836 133.824 131.284C134.496 130.708 134.832 129.964 134.832 129.052C134.832 128.308 134.604 127.696 134.148 127.216C133.692 126.736 133.116 126.364 132.42 126.1C131.748 125.812 130.812 125.5 129.612 125.164C127.98 124.684 126.648 124.216 125.616 123.76C124.608 123.28 123.732 122.572 122.988 121.636C122.268 120.676 121.908 119.404 121.908 117.82C121.908 116.332 122.28 115.036 123.024 113.932C123.768 112.828 124.812 111.988 126.156 111.412C127.5 110.812 129.036 110.512 130.764 110.512C133.356 110.512 135.456 111.148 137.064 112.42C138.696 113.668 139.596 115.42 139.764 117.676H134.22C134.172 116.812 133.8 116.104 133.104 115.552C132.432 114.976 131.532 114.688 130.404 114.688C129.42 114.688 128.628 114.94 128.028 115.444C127.452 115.948 127.164 116.68 127.164 117.64C127.164 118.312 127.38 118.876 127.812 119.332C128.268 119.764 128.82 120.124 129.468 120.412C130.14 120.676 131.076 120.988 132.276 121.348C133.908 121.828 135.24 122.308 136.272 122.788C137.304 123.268 138.192 123.988 138.936 124.948C139.68 125.908 140.052 127.168 140.052 128.728C140.052 130.072 139.704 131.32 139.008 132.472C138.312 133.624 137.292 134.548 135.948 135.244C134.604 135.916 133.008 136.252 131.16 136.252ZM161.522 110.872V114.94H154.826V136H149.786V114.94H143.09V110.872H161.522ZM185.179 110.872L176.683 127.252V136H171.643V127.252L163.111 110.872H168.799L174.199 122.356L179.563 110.872H185.179ZM193.126 132.004H201.406V136H188.086V110.872H193.126V132.004ZM209.649 114.94V121.24H218.109V125.236H209.649V131.896H219.189V136H204.609V110.836H219.189V114.94H209.649ZM232.553 110.872C235.193 110.872 237.509 111.388 239.501 112.42C241.517 113.452 243.065 114.928 244.145 116.848C245.249 118.744 245.801 120.952 245.801 123.472C245.801 125.992 245.249 128.2 244.145 130.096C243.065 131.968 241.517 133.42 239.501 134.452C237.509 135.484 235.193 136 232.553 136H223.769V110.872H232.553ZM232.373 131.716C235.013 131.716 237.053 130.996 238.493 129.556C239.933 128.116 240.653 126.088 240.653 123.472C240.653 120.856 239.933 118.816 238.493 117.352C237.053 115.864 235.013 115.12 232.373 115.12H228.809V131.716H232.373ZM256.928 123.4C256.928 120.928 257.48 118.72 258.584 116.776C259.712 114.808 261.236 113.284 263.156 112.204C265.1 111.1 267.272 110.548 269.672 110.548C272.48 110.548 274.94 111.268 277.052 112.708C279.164 114.148 280.64 116.14 281.48 118.684H275.684C275.108 117.484 274.292 116.584 273.236 115.984C272.204 115.384 271.004 115.084 269.636 115.084C268.172 115.084 266.864 115.432 265.712 116.128C264.584 116.8 263.696 117.76 263.048 119.008C262.424 120.256 262.112 121.72 262.112 123.4C262.112 125.056 262.424 126.52 263.048 127.792C263.696 129.04 264.584 130.012 265.712 130.708C266.864 131.38 268.172 131.716 269.636 131.716C271.004 131.716 272.204 131.416 273.236 130.816C274.292 130.192 275.108 129.28 275.684 128.08H281.48C280.64 130.648 279.164 132.652 277.052 134.092C274.964 135.508 272.504 136.216 269.672 136.216C267.272 136.216 265.1 135.676 263.156 134.596C261.236 133.492 259.712 131.968 258.584 130.024C257.48 128.08 256.928 125.872 256.928 123.4ZM297.449 136.252C295.097 136.252 292.937 135.7 290.969 134.596C289.001 133.492 287.441 131.968 286.289 130.024C285.137 128.056 284.561 125.836 284.561 123.364C284.561 120.916 285.137 118.72 286.289 116.776C287.441 114.808 289.001 113.272 290.969 112.168C292.937 111.064 295.097 110.512 297.449 110.512C299.825 110.512 301.985 111.064 303.929 112.168C305.897 113.272 307.445 114.808 308.573 116.776C309.725 118.72 310.301 120.916 310.301 123.364C310.301 125.836 309.725 128.056 308.573 130.024C307.445 131.968 305.897 133.492 303.929 134.596C301.961 135.7 299.801 136.252 297.449 136.252ZM297.449 131.752C298.961 131.752 300.293 131.416 301.445 130.744C302.597 130.048 303.497 129.064 304.145 127.792C304.793 126.52 305.117 125.044 305.117 123.364C305.117 121.684 304.793 120.22 304.145 118.972C303.497 117.7 302.597 116.728 301.445 116.056C300.293 115.384 298.961 115.048 297.449 115.048C295.937 115.048 294.593 115.384 293.417 116.056C292.265 116.728 291.365 117.7 290.717 118.972C290.069 120.22 289.745 121.684 289.745 123.364C289.745 125.044 290.069 126.52 290.717 127.792C291.365 129.064 292.265 130.048 293.417 130.744C294.593 131.416 295.937 131.752 297.449 131.752ZM341.446 110.872V136H336.406V119.656L329.674 136H325.858L319.09 119.656V136H314.05V110.872H319.774L327.766 129.556L335.758 110.872H341.446ZM364.753 118.648C364.753 119.992 364.429 121.252 363.781 122.428C363.157 123.604 362.161 124.552 360.793 125.272C359.449 125.992 357.745 126.352 355.681 126.352H351.469V136H346.429V110.872H355.681C357.625 110.872 359.281 111.208 360.649 111.88C362.017 112.552 363.037 113.476 363.709 114.652C364.405 115.828 364.753 117.16 364.753 118.648ZM355.465 122.284C356.857 122.284 357.889 121.972 358.561 121.348C359.233 120.7 359.569 119.8 359.569 118.648C359.569 116.2 358.201 114.976 355.465 114.976H351.469V122.284H355.465ZM379.996 136.252C377.644 136.252 375.484 135.7 373.516 134.596C371.548 133.492 369.988 131.968 368.836 130.024C367.684 128.056 367.108 125.836 367.108 123.364C367.108 120.916 367.684 118.72 368.836 116.776C369.988 114.808 371.548 113.272 373.516 112.168C375.484 111.064 377.644 110.512 379.996 110.512C382.372 110.512 384.532 111.064 386.476 112.168C388.444 113.272 389.992 114.808 391.12 116.776C392.272 118.72 392.848 120.916 392.848 123.364C392.848 125.836 392.272 128.056 391.12 130.024C389.992 131.968 388.444 133.492 386.476 134.596C384.508 135.7 382.348 136.252 379.996 136.252ZM379.996 131.752C381.508 131.752 382.84 131.416 383.992 130.744C385.144 130.048 386.044 129.064 386.692 127.792C387.34 126.52 387.664 125.044 387.664 123.364C387.664 121.684 387.34 120.22 386.692 118.972C386.044 117.7 385.144 116.728 383.992 116.056C382.84 115.384 381.508 115.048 379.996 115.048C378.484 115.048 377.14 115.384 375.964 116.056C374.812 116.728 373.912 117.7 373.264 118.972C372.616 120.22 372.292 121.684 372.292 123.364C372.292 125.044 372.616 126.52 373.264 127.792C373.912 129.064 374.812 130.048 375.964 130.744C377.14 131.416 378.484 131.752 379.996 131.752ZM418.089 136H413.049L401.637 118.756V136H396.597V110.836H401.637L413.049 128.116V110.836H418.089V136ZM428.11 114.94V121.24H436.57V125.236H428.11V131.896H437.65V136H423.07V110.836H437.65V114.94H428.11ZM463.722 136H458.682L447.27 118.756V136H442.23V110.836H447.27L458.682 128.116V110.836H463.722V136ZM485.803 110.872V114.94H479.107V136H474.067V114.94H467.371V110.872H485.803ZM498.156 136.252C496.404 136.252 494.82 135.952 493.404 135.352C492.012 134.752 490.908 133.888 490.092 132.76C489.276 131.632 488.856 130.3 488.832 128.764H494.232C494.304 129.796 494.664 130.612 495.312 131.212C495.984 131.812 496.896 132.112 498.048 132.112C499.224 132.112 500.148 131.836 500.82 131.284C501.492 130.708 501.828 129.964 501.828 129.052C501.828 128.308 501.6 127.696 501.144 127.216C500.688 126.736 500.112 126.364 499.416 126.1C498.744 125.812 497.808 125.5 496.608 125.164C494.976 124.684 493.644 124.216 492.612 123.76C491.604 123.28 490.728 122.572 489.984 121.636C489.264 120.676 488.904 119.404 488.904 117.82C488.904 116.332 489.276 115.036 490.02 113.932C490.764 112.828 491.808 111.988 493.152 111.412C494.496 110.812 496.032 110.512 497.76 110.512C500.352 110.512 502.452 111.148 504.06 112.42C505.692 113.668 506.592 115.42 506.76 117.676H501.216C501.168 116.812 500.796 116.104 500.1 115.552C499.428 114.976 498.528 114.688 497.4 114.688C496.416 114.688 495.624 114.94 495.024 115.444C494.448 115.948 494.16 116.68 494.16 117.64C494.16 118.312 494.376 118.876 494.808 119.332C495.264 119.764 495.816 120.124 496.464 120.412C497.136 120.676 498.072 120.988 499.272 121.348C500.904 121.828 502.236 122.308 503.268 122.788C504.3 123.268 505.188 123.988 505.932 124.948C506.676 125.908 507.048 127.168 507.048 128.728C507.048 130.072 506.7 131.32 506.004 132.472C505.308 133.624 504.288 134.548 502.944 135.244C501.6 135.916 500.004 136.252 498.156 136.252Z" fill="black"/>
<path d="M130.032 211.496V245H123.312V211.496H130.032ZM165.327 245H158.607L143.391 222.008V245H136.671V211.448H143.391L158.607 234.488V211.448H165.327V245Z" fill="#F9AC00"/>
<path d="M139.98 319.432C139.404 318.376 138.612 317.572 137.604 317.02C136.596 316.468 135.42 316.192 134.076 316.192C132.588 316.192 131.268 316.528 130.116 317.2C128.964 317.872 128.064 318.832 127.416 320.08C126.768 321.328 126.444 322.768 126.444 324.4C126.444 326.08 126.768 327.544 127.416 328.792C128.088 330.04 129.012 331 130.188 331.672C131.364 332.344 132.732 332.68 134.292 332.68C136.212 332.68 137.784 332.176 139.008 331.168C140.232 330.136 141.036 328.708 141.42 326.884H132.78V323.032H146.388V327.424C146.052 329.176 145.332 330.796 144.228 332.284C143.124 333.772 141.696 334.972 139.944 335.884C138.216 336.772 136.272 337.216 134.112 337.216C131.688 337.216 129.492 336.676 127.524 335.596C125.58 334.492 124.044 332.968 122.916 331.024C121.812 329.08 121.26 326.872 121.26 324.4C121.26 321.928 121.812 319.72 122.916 317.776C124.044 315.808 125.58 314.284 127.524 313.204C129.492 312.1 131.676 311.548 134.076 311.548C136.908 311.548 139.368 312.244 141.456 313.636C143.544 315.004 144.984 316.936 145.776 319.432H139.98ZM165.525 332.212H155.517L153.861 337H148.569L157.605 311.836H163.473L172.509 337H167.181L165.525 332.212ZM164.157 328.18L160.521 317.668L156.885 328.18H164.157ZM192.986 311.872V315.94H186.29V337H181.25V315.94H174.554V311.872H192.986ZM205.34 337.252C203.588 337.252 202.004 336.952 200.588 336.352C199.196 335.752 198.092 334.888 197.276 333.76C196.46 332.632 196.04 331.3 196.016 329.764H201.416C201.488 330.796 201.848 331.612 202.496 332.212C203.168 332.812 204.08 333.112 205.232 333.112C206.408 333.112 207.332 332.836 208.004 332.284C208.676 331.708 209.012 330.964 209.012 330.052C209.012 329.308 208.784 328.696 208.328 328.216C207.872 327.736 207.296 327.364 206.6 327.1C205.928 326.812 204.992 326.5 203.792 326.164C202.16 325.684 200.828 325.216 199.796 324.76C198.788 324.28 197.912 323.572 197.168 322.636C196.448 321.676 196.088 320.404 196.088 318.82C196.088 317.332 196.46 316.036 197.204 314.932C197.948 313.828 198.992 312.988 200.336 312.412C201.68 311.812 203.216 311.512 204.944 311.512C207.536 311.512 209.636 312.148 211.244 313.42C212.876 314.668 213.776 316.42 213.944 318.676H208.4C208.352 317.812 207.98 317.104 207.284 316.552C206.612 315.976 205.712 315.688 204.584 315.688C203.6 315.688 202.808 315.94 202.208 316.444C201.632 316.948 201.344 317.68 201.344 318.64C201.344 319.312 201.56 319.876 201.992 320.332C202.448 320.764 203 321.124 203.648 321.412C204.32 321.676 205.256 321.988 206.456 322.348C208.088 322.828 209.42 323.308 210.452 323.788C211.484 324.268 212.372 324.988 213.116 325.948C213.86 326.908 214.232 328.168 214.232 329.728C214.232 331.072 213.884 332.32 213.188 333.472C212.492 334.624 211.472 335.548 210.128 336.244C208.784 336.916 207.188 337.252 205.34 337.252ZM232.857 324.112C234.273 324.376 235.437 325.084 236.349 326.236C237.261 327.388 237.717 328.708 237.717 330.196C237.717 331.54 237.381 332.728 236.709 333.76C236.061 334.768 235.113 335.56 233.865 336.136C232.617 336.712 231.141 337 229.437 337H218.601V311.872H228.969C230.673 311.872 232.137 312.148 233.361 312.7C234.609 313.252 235.545 314.02 236.169 315.004C236.817 315.988 237.141 317.104 237.141 318.352C237.141 319.816 236.745 321.04 235.953 322.024C235.185 323.008 234.153 323.704 232.857 324.112ZM223.641 322.24H228.249C229.449 322.24 230.373 321.976 231.021 321.448C231.669 320.896 231.993 320.116 231.993 319.108C231.993 318.1 231.669 317.32 231.021 316.768C230.373 316.216 229.449 315.94 228.249 315.94H223.641V322.24ZM228.717 332.896C229.941 332.896 230.889 332.608 231.561 332.032C232.257 331.456 232.605 330.64 232.605 329.584C232.605 328.504 232.245 327.664 231.525 327.064C230.805 326.44 229.833 326.128 228.609 326.128H223.641V332.896H228.717ZM261.714 311.872L253.218 328.252V337H248.178V328.252L239.646 311.872H245.334L250.734 323.356L256.098 311.872H261.714ZM300.595 311.872V337H295.555V320.656L288.823 337H285.007L278.239 320.656V337H273.199V311.872H278.923L286.915 330.556L294.907 311.872H300.595ZM320.986 332.212H310.978L309.322 337H304.03L313.066 311.836H318.934L327.97 337H322.642L320.986 332.212ZM319.618 328.18L315.982 317.668L312.346 328.18H319.618ZM344.307 337L338.763 327.208H336.387V337H331.347V311.872H340.779C342.723 311.872 344.379 312.22 345.747 312.916C347.115 313.588 348.135 314.512 348.807 315.688C349.503 316.84 349.851 318.136 349.851 319.576C349.851 321.232 349.371 322.732 348.411 324.076C347.451 325.396 346.023 326.308 344.127 326.812L350.139 337H344.307ZM336.387 323.428H340.599C341.967 323.428 342.987 323.104 343.659 322.456C344.331 321.784 344.667 320.86 344.667 319.684C344.667 318.532 344.331 317.644 343.659 317.02C342.987 316.372 341.967 316.048 340.599 316.048H336.387V323.428ZM368.594 337L359.45 325.804V337H354.41V311.872H359.45V323.14L368.594 311.872H374.678L364.31 324.328L374.966 337H368.594ZM387.065 311.872C389.705 311.872 392.021 312.388 394.013 313.42C396.029 314.452 397.577 315.928 398.657 317.848C399.761 319.744 400.313 321.952 400.313 324.472C400.313 326.992 399.761 329.2 398.657 331.096C397.577 332.968 396.029 334.42 394.013 335.452C392.021 336.484 389.705 337 387.065 337H378.281V311.872H387.065ZM386.885 332.716C389.525 332.716 391.565 331.996 393.005 330.556C394.445 329.116 395.165 327.088 395.165 324.472C395.165 321.856 394.445 319.816 393.005 318.352C391.565 316.864 389.525 316.12 386.885 316.12H383.321V332.716H386.885ZM415.75 337.252C413.398 337.252 411.238 336.7 409.27 335.596C407.302 334.492 405.742 332.968 404.59 331.024C403.438 329.056 402.862 326.836 402.862 324.364C402.862 321.916 403.438 319.72 404.59 317.776C405.742 315.808 407.302 314.272 409.27 313.168C411.238 312.064 413.398 311.512 415.75 311.512C418.126 311.512 420.286 312.064 422.23 313.168C424.198 314.272 425.746 315.808 426.874 317.776C428.026 319.72 428.602 321.916 428.602 324.364C428.602 326.836 428.026 329.056 426.874 331.024C425.746 332.968 424.198 334.492 422.23 335.596C420.262 336.7 418.102 337.252 415.75 337.252ZM415.75 332.752C417.262 332.752 418.594 332.416 419.746 331.744C420.898 331.048 421.798 330.064 422.446 328.792C423.094 327.52 423.418 326.044 423.418 324.364C423.418 322.684 423.094 321.22 422.446 319.972C421.798 318.7 420.898 317.728 419.746 317.056C418.594 316.384 417.262 316.048 415.75 316.048C414.238 316.048 412.894 316.384 411.718 317.056C410.566 317.728 409.666 318.7 409.018 319.972C408.37 321.22 408.046 322.684 408.046 324.364C408.046 326.044 408.37 327.52 409.018 328.792C409.666 330.064 410.566 331.048 411.718 331.744C412.894 332.416 414.238 332.752 415.75 332.752ZM465.939 311.872L458.919 337H452.979L448.263 319.108L443.331 337L437.427 337.036L430.659 311.872H436.059L440.487 331.384L445.599 311.872H451.215L456.039 331.276L460.503 311.872H465.939ZM490.722 337H485.682L474.27 319.756V337H469.23V311.836H474.27L485.682 329.116V311.836H490.722V337Z" fill="black"/>
</g>
<defs>
<clipPath id="clip0">
<rect width="780" height="440" fill="white"/>
</clipPath>
</defs>
</svg>
